<?xml version="1.0" encoding="utf-8"?>
<!-- Generator: Adobe Illustrator 16.0.0, SVG Export Plug-In . SVG Version: 6.00 Build 0)  -->
<!DOCTYPE svg PUBLIC "-//W3C//DTD SVG 1.1//EN" "http://www.w3.org/Graphics/SVG/1.1/DTD/svg11.dtd">
<svg version="1.1" id="Layer_1" xmlns="http://www.w3.org/2000/svg" xmlns:xlink="http://www.w3.org/1999/xlink" x="0px" y="0px"
	 width="410px" height="131px" viewBox="0 0 410 131" enable-background="new 0 0 410 131" xml:space="preserve">
<g>
	<g>
		<path fill-opacity="0.149" d="M379.5,12.2c0.37,0.23,0.62,0.55,0.75,0.95c0.17,0.37,0.15,0.75-0.05,1.15
			c-3.5,7.27-4.35,11.57-2.55,12.9c0.27,0.13,0.47,0.37,0.6,0.7c1.43,2.6,0.27,5.35-3.5,8.25c-1.83,3.43,0.05,8.68,5.65,15.75
			c6.37,7.87,10.88,14.23,13.55,19.1c2.53,4.77,6.23,14.57,11.1,29.4c2.6,8.03,1.22,14.35-4.15,18.95c-5,4.47-13.75,7.28-26.25,8.45
			c-24.33,2.3-49.35,1.08-75.05-3.65c-25.63-4.77-47.53-8.67-65.7-11.7c-18.17-3.07-39.1-6.28-62.8-9.65
			c-23.63-3.43-55.45-6.67-95.45-9.7c-20.2-1.53-35.07-3.75-44.6-6.65C20.42,83.22,15.92,79.07,17.55,74
			c0.47-1.8,0.87-3.48,1.2-5.05c0.23-1.43,0.3-4.83,0.2-10.2c-0.73-3.07-1.52-8.52-2.35-16.35c-0.77-8.2-0.53-14.32,0.7-18.35
			c0.97-3.27,0.25-6.05-2.15-8.35c-0.3-0.33-0.45-0.7-0.45-1.1c0-0.47,0.15-0.85,0.45-1.15c0.27-0.3,0.63-0.45,1.1-0.45
			c0.4,0,0.75,0.15,1.05,0.45c3.33,3.17,4.32,7,2.95,11.5c-1.13,3.73-1.32,9.45-0.55,17.15c0.8,7.77,1.57,13.13,2.3,16.1
			c0,0.03,0,0.13,0,0.3c0.1,5.8,0.02,9.47-0.25,11c-0.3,1.63-0.7,3.42-1.2,5.35C19.82,78.12,23.6,81,31.9,83.5
			c9.37,2.83,24.02,5.02,43.95,6.55c40.07,3.03,71.98,6.25,95.75,9.65c23.67,3.4,44.62,6.65,62.85,9.75c18.1,2.97,40,6.87,65.7,11.7
			c25.43,4.7,50.17,5.9,74.2,3.6c11.67-1.13,19.85-3.7,24.55-7.7c4.3-3.87,5.38-9.1,3.25-15.7c-4.77-14.53-8.4-24.17-10.9-28.9
			c-2.6-4.7-7-10.92-13.2-18.65c-6.9-8.63-8.85-15.12-5.85-19.45c0.1-0.17,0.23-0.3,0.4-0.4c2.2-1.63,3.2-3.1,3-4.4
			c-3.03-2.13-2.42-7.65,1.85-16.55c0.2-0.4,0.5-0.68,0.9-0.85C378.72,11.98,379.1,12,379.5,12.2z"/>
	</g>
	<g>
		<path fill="#660000" d="M379.35,6.3c2.4,2.2,4.75,2.28,7.05,0.25c0.3-0.27,0.67-0.4,1.1-0.4c0.4,0,0.75,0.18,1.05,0.55
			c0.27,0.3,0.4,0.65,0.4,1.05c0,0.43-0.15,0.8-0.45,1.1c-3.1,2.8-6.28,3.15-9.55,1.05c-3.1,7.63-3.4,12.32-0.9,14.05
			c4,2.47,5.97,5.95,5.9,10.45c-0.07,3.47,1.83,7.35,5.7,11.65c4.23,4.73,8.75,18.48,13.55,41.25c2.4,11.7,1.02,20.78-4.15,27.25
			c-5.07,6.43-13.88,10.27-26.45,11.5c-24.37,2.3-49.38,1.07-75.05-3.7c-25.63-4.77-47.53-8.65-65.7-11.65
			c-18.17-3.07-39.1-6.3-62.8-9.7c-23.63-3.4-55.85-6.38-96.65-8.95C51.6,90.78,36.25,86.4,26.35,78.9
			c-10.23-7.57-14.83-18.28-13.8-32.15c0.97-13.23,1.43-22.95,1.4-29.15c0-2.93-0.13-5.03-0.4-6.3c-2.37,1.13-5.03,0.9-8-0.7
			c-0.4-0.2-0.65-0.5-0.75-0.9C4.7,9.3,4.75,8.92,4.95,8.55c0.17-0.4,0.45-0.67,0.85-0.8c0.4-0.1,0.82-0.03,1.25,0.2
			c2.23,1.17,4.2,1.22,5.9,0.15c1-0.77,1.92-0.65,2.75,0.35c0.3,0.3,0.58,1,0.85,2.1c0.27,1.37,0.42,3.68,0.45,6.95
			c0.07,6.3-0.38,16.13-1.35,29.5c-0.93,12.63,3.23,22.45,12.5,29.45c9.57,7.07,24.4,11.23,44.5,12.5c40.83,2.57,73.12,5.57,96.85,9
			c23.7,3.37,44.65,6.62,62.85,9.75c18.13,2.97,40.03,6.85,65.7,11.65c25.43,4.73,50.18,5.93,74.25,3.6
			c11.57-1.07,19.7-4.52,24.4-10.35c4.53-5.87,5.7-14.1,3.5-24.7c-4.63-21.97-8.92-35.25-12.85-39.85v0.1
			c-4.47-5.07-6.62-9.67-6.45-13.8c0.03-3.33-1.45-5.92-4.45-7.75c-4.4-2.43-4.25-9.02,0.45-19.75c0.1-0.3,0.3-0.53,0.6-0.7
			c0.3-0.13,0.6-0.2,0.9-0.2C378.77,5.98,379.08,6.1,379.35,6.3z"/>
	</g>
	<g>
		<g>
			
				<radialGradient id="SVGID_1_" cx="282.9004" cy="117.3506" r="6.9875" gradientTransform="matrix(1 0 0 -1 94 136)" gradientUnits="userSpaceOnUse">
				<stop  offset="0" style="stop-color:#FFFFFF"/>
				<stop  offset="1" style="stop-color:#FFFFFF;stop-opacity:0"/>
			</radialGradient>
			<path fill="url(#SVGID_1_)" d="M376.35,11.55c0.07,0,0.12,0.02,0.15,0.05c0,0.07,0,0.12,0,0.15c-2.6,6.1-2.23,10.68,1.1,13.75
				c0,0.07,0.02,0.12,0.05,0.15c0,0.07-0.02,0.12-0.05,0.15c-0.07,0-0.12,0.03-0.15,0.1c-0.07,0-0.1-0.03-0.1-0.1
				c-3.47-3.17-3.88-7.9-1.25-14.2c0-0.03,0.03-0.05,0.1-0.05C376.23,11.48,376.28,11.48,376.35,11.55z"/>
			
				<radialGradient id="SVGID_2_" cx="291.8496" cy="94.4502" r="7.525" gradientTransform="matrix(1 0 0 -1 94 136)" gradientUnits="userSpaceOnUse">
				<stop  offset="0" style="stop-color:#FFFFFF"/>
				<stop  offset="1" style="stop-color:#FFFFFF;stop-opacity:0"/>
			</radialGradient>
			<path fill="url(#SVGID_2_)" d="M381.9,35.15c-0.07-0.1-0.07-0.15,0-0.15c0.03-0.03,0.08-0.05,0.15-0.05
				c0.03-0.07,0.08-0.07,0.15,0c0,0.03,0.02,0.08,0.05,0.15c0.57,4.77,3.1,8.98,7.6,12.65c0,0.07,0.03,0.12,0.1,0.15
				c0,0.07-0.03,0.12-0.1,0.15c-0.03,0-0.08,0.03-0.15,0.1c-0.03,0-0.05-0.03-0.05-0.1C385.08,44.28,382.5,39.98,381.9,35.15z"/>
			
				<radialGradient id="SVGID_3_" cx="303.749" cy="62.1763" r="18.8972" gradientTransform="matrix(1 0 0 -1 94 136)" gradientUnits="userSpaceOnUse">
				<stop  offset="0" style="stop-color:#FFFFFF"/>
				<stop  offset="1" style="stop-color:#FFFFFF;stop-opacity:0"/>
			</radialGradient>
			<path fill="url(#SVGID_3_)" d="M392.85,55.45c0.07-0.07,0.12-0.07,0.15,0c0.07,0,0.12,0.02,0.15,0.05
				c4.1,11.77,7.3,23.95,9.6,36.55c0,0.03-0.02,0.08-0.05,0.15c-0.07,0-0.1,0.02-0.1,0.05c-0.1,0-0.15-0.02-0.15-0.05l-0.1-0.1
				c-2.33-12.53-5.52-24.68-9.55-36.45c-0.07-0.03-0.07-0.08,0-0.15C392.8,55.47,392.82,55.45,392.85,55.45z"/>
			
				<radialGradient id="SVGID_4_" cx="288.3486" cy="23.7002" r="24.5633" gradientTransform="matrix(1 0 0 -1 94 136)" gradientUnits="userSpaceOnUse">
				<stop  offset="0" style="stop-color:#FFFFFF"/>
				<stop  offset="1" style="stop-color:#FFFFFF;stop-opacity:0"/>
			</radialGradient>
			<path fill="url(#SVGID_4_)" d="M360.9,124.8c-0.03-0.03-0.03-0.08,0-0.15c0-0.03,0.03-0.08,0.1-0.15c0-0.03,0.03-0.03,0.1,0
				c25.4,1.23,39.18-7.2,41.35-25.3c0-0.07,0.02-0.12,0.05-0.15c0-0.07,0.07-0.07,0.2,0l0.05,0.05c0.07,0,0.1,0.05,0.1,0.15
				c-2.1,18.37-16.02,26.92-41.75,25.65C361.03,124.83,360.97,124.8,360.9,124.8z"/>
			
				<radialGradient id="SVGID_5_" cx="185.7002" cy="19.251" r="52.0374" gradientTransform="matrix(1 0 0 -1 94 136)" gradientUnits="userSpaceOnUse">
				<stop  offset="0" style="stop-color:#FFFFFF"/>
				<stop  offset="1" style="stop-color:#FFFFFF;stop-opacity:0"/>
			</radialGradient>
			<path fill="url(#SVGID_5_)" d="M336.65,125.3c0,0.03-0.02,0.08-0.05,0.15c-0.07,0-0.1,0.02-0.1,0.05
				c-7,0.97-43.03-4.6-108.1-16.7c-0.07-0.07-0.13-0.1-0.2-0.1c-0.03-0.07-0.03-0.12,0-0.15c0-0.07,0.03-0.12,0.1-0.15
				c0-0.07,0.05-0.07,0.15,0c65.03,12.07,101.03,17.63,108,16.7c0.03-0.03,0.08-0.03,0.15,0
				C336.6,125.17,336.62,125.23,336.65,125.3z"/>
			
				<radialGradient id="SVGID_6_" cx="-84" cy="127" r="4.225" gradientTransform="matrix(1 0 0 -1 94 136)" gradientUnits="userSpaceOnUse">
				<stop  offset="0" style="stop-color:#FFFFFF"/>
				<stop  offset="1" style="stop-color:#FFFFFF;stop-opacity:0"/>
			</radialGradient>
			<path fill="url(#SVGID_6_)" d="M14.45,9.1c-0.03,0-0.05,0.02-0.05,0.05c-2.93,1.9-5.83,1.9-8.7,0L5.65,9.1
				c-0.07-0.13-0.07-0.2,0-0.2C5.68,8.87,5.73,8.85,5.8,8.85c0.07-0.07,0.12-0.07,0.15,0c2.7,1.8,5.43,1.8,8.2,0
				c0-0.07,0.05-0.07,0.15,0l0.1,0.05C14.43,8.9,14.45,8.97,14.45,9.1z"/>
			
				<radialGradient id="SVGID_7_" cx="-78.8501" cy="109.7998" r="13.8125" gradientTransform="matrix(1 0 0 -1 94 136)" gradientUnits="userSpaceOnUse">
				<stop  offset="0" style="stop-color:#FFFFFF"/>
				<stop  offset="1" style="stop-color:#FFFFFF;stop-opacity:0"/>
			</radialGradient>
			<path fill="url(#SVGID_7_)" d="M15.1,13.15c0,0.03,0.02,0.08,0.05,0.15c0.77,8.9,0.52,17.8-0.75,26.7c-0.07,0-0.1,0.03-0.1,0.1
				c-0.03,0.03-0.08,0.05-0.15,0.05c-0.03-0.03-0.08-0.05-0.15-0.05c-0.03-0.07-0.03-0.12,0-0.15c1.23-8.87,1.5-17.75,0.8-26.65
				c-0.07-0.07-0.07-0.1,0-0.1c0.03-0.03,0.08-0.05,0.15-0.05C14.98,13.08,15.03,13.08,15.1,13.15z"/>
			
				<radialGradient id="SVGID_8_" cx="-60.25" cy="69.876" r="29.2182" gradientTransform="matrix(1 0 0 -1 94 136)" gradientUnits="userSpaceOnUse">
				<stop  offset="0" style="stop-color:#FFFFFF"/>
				<stop  offset="1" style="stop-color:#FFFFFF;stop-opacity:0"/>
			</radialGradient>
			<path fill="url(#SVGID_8_)" d="M14.7,43.85l0.1,0.05c0.03,0,0.05,0.07,0.05,0.2c-3.1,22.9,9.6,37.55,38.1,43.95l0.05,0.1
				c0.07,0,0.1,0.05,0.1,0.15c-0.07,0-0.1,0.02-0.1,0.05c-0.03,0.07-0.08,0.1-0.15,0.1C24.08,81.98,11.28,67.17,14.45,44
				c0-0.07,0.03-0.12,0.1-0.15C14.55,43.78,14.6,43.78,14.7,43.85z"/>
			
				<radialGradient id="SVGID_9_" cx="47.3242" cy="37.7861" r="68.6375" gradientTransform="matrix(1 0 0 -1 94 136)" gradientUnits="userSpaceOnUse">
				<stop  offset="0" style="stop-color:#FFFFFF"/>
				<stop  offset="1" style="stop-color:#FFFFFF;stop-opacity:0"/>
			</radialGradient>
			<path fill="url(#SVGID_9_)" d="M73.1,90.35c0-0.03,0.03-0.03,0.1,0c52.33,2.83,97.77,7.95,136.3,15.35l0.05,0.1
				c0.07,0,0.1,0.05,0.1,0.15c-0.07,0-0.1,0.02-0.1,0.05c-0.03,0.07-0.08,0.1-0.15,0.1c-38.47-7.37-83.87-12.48-136.2-15.35
				c-0.07-0.07-0.12-0.1-0.15-0.1c-0.07-0.03-0.07-0.08,0-0.15C73.05,90.47,73.07,90.42,73.1,90.35z"/>
		</g>
	</g>
</g>
</svg>
