<?xml version="1.0" encoding="utf-8"?>
<!-- Generator: Adobe Illustrator 16.0.0, SVG Export Plug-In . SVG Version: 6.00 Build 0)  -->
<!DOCTYPE svg PUBLIC "-//W3C//DTD SVG 1.1//EN" "http://www.w3.org/Graphics/SVG/1.1/DTD/svg11.dtd">
<svg version="1.1" id="Layer_1" xmlns="http://www.w3.org/2000/svg" xmlns:xlink="http://www.w3.org/1999/xlink" x="0px" y="0px"
	 width="303px" height="46px" viewBox="0 0 303 46" enable-background="new 0 0 303 46" xml:space="preserve">
<g>
	<g>
		<path fill-opacity="0.149" d="M52.58,23.43c5.83-0.13,9.4,4.05,10.7,12.55c1.1,6.5,25.37,7.38,72.8,2.65
			c48.43-4.9,74.97-7.88,79.6-8.95c0.43-0.07,0.85,0,1.25,0.2c0.3,0.27,0.5,0.58,0.6,0.95c0.1,0.4,0.02,0.8-0.25,1.2
			c-0.13,0.37-0.4,0.58-0.8,0.65c-4.73,1.07-31.4,4.08-80,9.05c-49.77,4.97-75.2,3.22-76.3-5.25c-1-6.53-3.53-9.88-7.6-10.05
			c-5.27,0-10.82-1.55-16.65-4.65c-0.4-0.2-0.65-0.52-0.75-0.95c-0.1-0.4-0.05-0.8,0.15-1.2c0.2-0.37,0.5-0.6,0.9-0.7
			c0.43-0.1,0.82-0.08,1.15,0.05C42.78,21.85,47.85,23.33,52.58,23.43z"/>
	</g>
	<g>
		<path fill="#660000" d="M300.28,5.48c0.23,0.37,0.33,0.78,0.3,1.25c-0.1,0.4-0.33,0.75-0.7,1.05c-4.2,3.07-8.13,2.9-11.8-0.5
			c-11.43-2.37-22.43-0.28-33,6.25c-11.73,7.27-21.63,9.3-29.7,6.1c-7.43-2.77-17.95-0.62-31.55,6.45
			c-14.5,7.37-28.52,10.67-42.05,9.9h-0.1c-13.3-0.77-30.13,0.35-50.5,3.35c-21.73,3.13-33.22-0.03-34.45-9.5
			c-1.23-7.63-5.33-11.17-12.3-10.6c-8.6,0.73-14.67-1.6-18.2-7h-0.05c-2.87-4.3-6.45-6.28-10.75-5.95c-4.8,0.4-8.38,1.13-10.75,2.2
			c-3,1.4-6.53,1.15-10.6-0.75C3.68,7.57,3.4,7.3,3.23,6.93c-0.13-0.43-0.1-0.87,0.1-1.3c0.13-0.4,0.38-0.68,0.75-0.85
			c0.43-0.13,0.85-0.07,1.25,0.2c3.07,1.43,5.75,1.65,8.05,0.65c2.67-1.1,6.58-1.92,11.75-2.45c5.47-0.5,10.02,1.97,13.65,7.4
			c2.97,4.33,8.12,6.2,15.45,5.6c8.73-0.83,13.92,3.53,15.55,13.1c1.4,7.43,11.72,9.77,30.95,7c20.5-2.97,37.53-4.1,51.1-3.4
			c13.1,0.67,26.63-2.53,40.6-9.6h0.1c14.63-7.57,25.98-9.73,34.05-6.5c7.23,2.67,16.18,0.72,26.85-5.85
			c11.33-7.1,23.23-9.32,35.7-6.65c0.3,0.1,0.57,0.25,0.8,0.45c2.5,2.57,5.23,2.75,8.2,0.55c0.37-0.27,0.75-0.35,1.15-0.25
			C299.65,5.03,299.98,5.18,300.28,5.48z"/>
	</g>
	<g>
		<g>
			
				<radialGradient id="SVGID_1_" cx="177.5039" cy="43.3672" r="15.7062" gradientTransform="matrix(1 0 0 -1 94 51)" gradientUnits="userSpaceOnUse">
				<stop  offset="0" style="stop-color:#FFFFFF"/>
				<stop  offset="1" style="stop-color:#FFFFFF;stop-opacity:0"/>
			</radialGradient>
			<path fill="url(#SVGID_1_)" d="M287.13,4.58c-0.03,0.03-0.08,0.05-0.15,0.05l-0.05,0.1c-11.73-0.73-21.97,1.37-30.7,6.3
				c-0.07,0-0.12-0.03-0.15-0.1h-0.15c-0.07-0.03-0.07-0.08,0-0.15c0.03-0.1,0.08-0.15,0.15-0.15c8.8-4.97,19.08-7.07,30.85-6.3
				l0.05,0.1C287.05,4.47,287.1,4.52,287.13,4.58z"/>
			
				<radialGradient id="SVGID_2_" cx="200.9824" cy="44.8672" r="4.3573" gradientTransform="matrix(1 0 0 -1 94 51)" gradientUnits="userSpaceOnUse">
				<stop  offset="0" style="stop-color:#FFFFFF"/>
				<stop  offset="1" style="stop-color:#FFFFFF;stop-opacity:0"/>
			</radialGradient>
			<path fill="url(#SVGID_2_)" d="M290.93,7.03c-0.07-0.07-0.07-0.1,0-0.1c0.03-0.03,0.08-0.05,0.15-0.05l0.05,0.05
				c1.33,1.5,4.05,1.4,8.15-0.3c0-0.03,0.02-0.03,0.05,0c0,0.07,0.03,0.1,0.1,0.1c0,0.03-0.03,0.1-0.1,0.2l0.1,0.1
				c-4.37,1.8-7.2,1.85-8.5,0.15C290.87,7.15,290.87,7.1,290.93,7.03z"/>
			
				<radialGradient id="SVGID_3_" cx="-49.3672" cy="37.4658" r="10.3598" gradientTransform="matrix(1 0 0 -1 94 51)" gradientUnits="userSpaceOnUse">
				<stop  offset="0" style="stop-color:#FFFFFF"/>
				<stop  offset="1" style="stop-color:#FFFFFF;stop-opacity:0"/>
			</radialGradient>
			<path fill="url(#SVGID_3_)" d="M53.98,17.83c0.07-0.03,0.12,0,0.15,0.1c-0.03,0.03-0.05,0.08-0.05,0.15
				c-0.07,0.07-0.13,0.1-0.2,0.1c-8.67,1-14.93-2-18.8-9c-0.03,0-0.03-0.05,0-0.15c0.07-0.07,0.12-0.1,0.15-0.1h0.1
				c0.07,0,0.12,0.03,0.15,0.1c3.73,6.87,9.87,9.78,18.4,8.75L53.98,17.83z"/>
			
				<radialGradient id="SVGID_4_" cx="-9.917" cy="17.0156" r="15.4926" gradientTransform="matrix(1 0 0 -1 94 51)" gradientUnits="userSpaceOnUse">
				<stop  offset="0" style="stop-color:#FFFFFF"/>
				<stop  offset="1" style="stop-color:#FFFFFF;stop-opacity:0"/>
			</radialGradient>
			<path fill="url(#SVGID_4_)" d="M68.58,32.03c0-0.03,0.02-0.05,0.05-0.05c0.07,0.03,0.12,0.08,0.15,0.15
				c3.7,6.1,14.17,8.02,31.4,5.75l0.1,0.1c0.03-0.07,0.08-0.05,0.15,0.05c-0.07,0.07-0.1,0.12-0.1,0.15
				c-0.03,0.07-0.08,0.1-0.15,0.1c-17.53,2.3-28.1,0.3-31.7-6c-0.1-0.07-0.12-0.12-0.05-0.15C68.47,32.07,68.52,32.03,68.58,32.03z"
				/>
			
				<radialGradient id="SVGID_5_" cx="35.4829" cy="15.3174" r="20.7012" gradientTransform="matrix(1 0 0 -1 94 51)" gradientUnits="userSpaceOnUse">
				<stop  offset="0" style="stop-color:#FFFFFF"/>
				<stop  offset="1" style="stop-color:#FFFFFF;stop-opacity:0"/>
			</radialGradient>
			<path fill="url(#SVGID_5_)" d="M108.68,36.48c0-0.03,0.07-0.05,0.2-0.05c19.57-2.27,33.82-3.07,42.75-2.4
				c0.03,0,0.08,0.03,0.15,0.1c0.03,0.03,0.05,0.08,0.05,0.15c-0.03,0.03-0.08,0.05-0.15,0.05c0,0.1-0.02,0.15-0.05,0.15
				c-8.97-0.7-23.22,0.08-42.75,2.35c-0.07,0-0.13,0-0.2,0c-0.03-0.07-0.05-0.13-0.05-0.2C108.63,36.6,108.65,36.55,108.68,36.48z"
				/>
			
				<radialGradient id="SVGID_6_" cx="-84.4668" cy="44.5664" r="5.4483" gradientTransform="matrix(1 0 0 -1 94 51)" gradientUnits="userSpaceOnUse">
				<stop  offset="0" style="stop-color:#FFFFFF"/>
				<stop  offset="1" style="stop-color:#FFFFFF;stop-opacity:0"/>
			</radialGradient>
			<path fill="url(#SVGID_6_)" d="M14.93,6.18c0-0.03,0.02-0.03,0.05,0c0,0.07,0.03,0.12,0.1,0.15c0.03,0.07,0.03,0.12,0,0.15
				c-0.07,0-0.1,0.03-0.1,0.1c-3.63,1.9-7.27,1.97-10.9,0.2V6.73c-0.1-0.1-0.12-0.15-0.05-0.15c0-0.07,0.02-0.12,0.05-0.15
				c0.07-0.07,0.12-0.07,0.15,0C7.77,8.1,11.33,8.02,14.93,6.18z"/>
			
				<radialGradient id="SVGID_7_" cx="139.9937" cy="34.3672" r="11.7931" gradientTransform="matrix(1 0 0 -1 94 51)" gradientUnits="userSpaceOnUse">
				<stop  offset="0" style="stop-color:#FFFFFF"/>
				<stop  offset="1" style="stop-color:#FFFFFF;stop-opacity:0"/>
			</radialGradient>
			<path fill="url(#SVGID_7_)" d="M221.98,17.18c-0.03-0.07-0.03-0.1,0-0.1c0.07-0.1,0.12-0.15,0.15-0.15
				c0.07-0.07,0.12-0.07,0.15,0c7.7,3.73,15.53,3.4,23.5-1c0-0.07,0.03-0.07,0.1,0c0.03,0.07,0.08,0.12,0.15,0.15v0.1
				c-0.07,0.03-0.1,0.08-0.1,0.15c-8.13,4.43-16.07,4.73-23.8,0.9C222.1,17.23,222.05,17.22,221.98,17.18z"/>
			
				<radialGradient id="SVGID_8_" cx="79.999" cy="21.1177" r="17.365" gradientTransform="matrix(1 0 0 -1 94 51)" gradientUnits="userSpaceOnUse">
				<stop  offset="0" style="stop-color:#FFFFFF"/>
				<stop  offset="1" style="stop-color:#FFFFFF;stop-opacity:0"/>
			</radialGradient>
			<path fill="url(#SVGID_8_)" d="M157.13,34.68c0-0.07,0.03-0.15,0.1-0.25c-0.07-0.07-0.02-0.07,0.15,0
				c10.07,0,21.13-3.15,33.2-9.45c0.07-0.03,0.12-0.03,0.15,0c0.07,0.07,0.12,0.12,0.15,0.15c0,0.07-0.02,0.12-0.05,0.15
				c-0.07,0-0.07,0.03,0,0.1c-12.13,6.33-23.28,9.48-33.45,9.45c-0.07-0.07-0.12-0.07-0.15,0C157.13,34.77,157.1,34.72,157.13,34.68
				z"/>
		</g>
	</g>
</g>
</svg>
