<?xml version="1.0" encoding="utf-8"?>
<!-- Generator: Adobe Illustrator 16.0.0, SVG Export Plug-In . SVG Version: 6.00 Build 0)  -->
<!DOCTYPE svg PUBLIC "-//W3C//DTD SVG 1.1//EN" "http://www.w3.org/Graphics/SVG/1.1/DTD/svg11.dtd">
<svg version="1.1" id="Layer_1" xmlns="http://www.w3.org/2000/svg" xmlns:xlink="http://www.w3.org/1999/xlink" x="0px" y="0px"
	 width="386px" height="139px" viewBox="0 0 386 139" enable-background="new 0 0 386 139" xml:space="preserve">
<g>
	<g>
		<path fill-rule="evenodd" clip-rule="evenodd" fill-opacity="0.149" d="M364.4,66.05c0.4,0,0.73,0.18,1,0.55
			c1.23,1.5,2.33,4.32,3.3,8.45v-0.1c0.73,3.07,0.77,6.25,0.1,9.55c6.07,10.47,8.47,19.33,7.2,26.6
			c-1.27,7.63-6.48,13.55-15.65,17.75c-17.37,7.87-49.58,9.2-96.65,4c-94.33-10.43-143.7-24.23-148.1-41.4
			c-4.5-15.73-17.12-22.78-37.85-21.15c-0.3,0-0.58-0.05-0.85-0.15c-0.3-0.23-0.5-0.45-0.6-0.65c-0.2-0.3-0.28-0.6-0.25-0.9
			C76.78,57.63,71,51.22,58.7,49.35c-0.4-0.07-0.73-0.28-1-0.65c-0.23-0.3-0.3-0.65-0.2-1.05c0.87-6.9-3.95-12.78-14.45-17.65
			c-11.3-5.33-22.25-9.3-32.85-11.9c-0.4-0.1-0.7-0.35-0.9-0.75c-0.27-0.33-0.35-0.7-0.25-1.1c0.1-0.47,0.35-0.82,0.75-1.05
			c0.27-0.23,0.63-0.3,1.1-0.2c10.73,2.67,21.87,6.72,33.4,12.15c11.5,5.43,16.97,11.9,16.4,19.4c12.53,2.43,18.7,9.3,18.5,20.6
			c21.53-1.23,34.63,6.65,39.3,23.65c4.67,15.8,53.2,28.82,145.6,39.05c46.27,5.07,77.93,3.78,95-3.85
			c8.03-3.63,12.65-8.75,13.85-15.35c1.1-6.87-1.27-15.25-7.1-25.15c-0.2-0.43-0.27-0.82-0.2-1.15c0.7-2.93,0.7-5.8,0-8.6
			c-0.77-3.6-1.65-6.02-2.65-7.25c-0.23-0.33-0.33-0.72-0.3-1.15c0.07-0.4,0.25-0.73,0.55-1C363.62,66.12,364,66.02,364.4,66.05z"/>
	</g>
	<g>
		<path fill-rule="evenodd" clip-rule="evenodd" fill="#FFFFFF" d="M368.1,61.15c0.37-0.17,0.75-0.17,1.15,0
			c0.3,0.07,0.55,0.3,0.75,0.7c14.83,26,16.37,44.85,4.6,56.55c-11.3,11.57-35.63,15.95-73,13.15c-62-4.2-108.43-10.32-139.3-18.35
			c-31.87-8.33-47.6-18.85-47.2-31.55c0.33-23.2-7.33-39.83-23-49.9c-0.07-0.03-0.12-0.05-0.15-0.05C85.55,26,73.3,20.23,55.2,14.4
			c-17.93-5.67-29.97-6.78-36.1-3.35c-7.17,4.23-12.15,4.92-14.95,2.05c-0.37-0.3-0.55-0.65-0.55-1.05c0-0.43,0.15-0.8,0.45-1.1
			c0.3-0.37,0.67-0.55,1.1-0.55c0.4,0,0.75,0.17,1.05,0.5c2,1.57,5.78,0.73,11.35-2.5C24.15,4.37,37,5.42,56.1,11.55
			C74.83,17.48,87.47,23.43,94,29.4l-0.2-0.25c16.63,10.6,24.78,28.12,24.45,52.55c0.07,11.17,15.03,20.63,44.9,28.4
			c30.77,8.03,76.98,14.15,138.65,18.35h0.05c36.07,2.73,59.58-1.33,70.55-12.2c10.37-10.73,8.9-28-4.4-51.8
			c-3.33,1.07-6.48,0.65-9.45-1.25c-0.3-0.23-0.5-0.53-0.6-0.9c-0.1-0.4-0.02-0.82,0.25-1.25c0.23-0.33,0.53-0.55,0.9-0.65
			c0.37-0.1,0.75-0.03,1.15,0.2C362.65,62.1,365.27,62.28,368.1,61.15z"/>
	</g>
</g>
</svg>
