<?xml version="1.0" encoding="utf-8"?>
<!-- Generator: Adobe Illustrator 16.0.0, SVG Export Plug-In . SVG Version: 6.00 Build 0)  -->
<!DOCTYPE svg PUBLIC "-//W3C//DTD SVG 1.1//EN" "http://www.w3.org/Graphics/SVG/1.1/DTD/svg11.dtd">
<svg version="1.1" id="Layer_1" xmlns="http://www.w3.org/2000/svg" xmlns:xlink="http://www.w3.org/1999/xlink" x="0px" y="0px"
	 width="344px" height="111px" viewBox="0 0 344 111" enable-background="new 0 0 344 111" xml:space="preserve">
<g>
	<g>
		<path fill-rule="evenodd" clip-rule="evenodd" fill-opacity="0.149" d="M62.6,49.95c-0.2-0.17-0.35-0.33-0.45-0.5
			C55.78,39.12,49.72,33,43.95,31.1C23.78,24.77,13.8,21.2,14,20.4c0-0.43,0.15-0.8,0.45-1.1c0.33-0.3,0.7-0.45,1.1-0.45
			c0.4,0,0.75,0.15,1.05,0.45c0.33,0.3,0.5,0.67,0.5,1.1c0.2-0.53,9.45,2.07,27.75,7.8c6.3,1.83,12.8,8.18,19.5,19.05
			c12.73,2.1,20.37,9.47,22.9,22.1c6.43,12.37,31.52,19.12,75.25,20.25h61.4c0.43,0,0.8,0.15,1.1,0.45c0.3,0.33,0.45,0.7,0.45,1.1
			c0,0.4-0.15,0.75-0.45,1.05c-0.3,0.33-0.67,0.5-1.1,0.5h-61.4c-45.63-1.13-71.67-8.52-78.1-22.15c-0.07-0.1-0.1-0.22-0.1-0.35
			c-2.23-11.57-9.27-18.25-21.1-20.05C63,50.12,62.8,50.05,62.6,49.95z M330,70.55c0.2-0.4,0.5-0.67,0.9-0.8
			c0.37-0.17,0.75-0.15,1.15,0.05c0.37,0.2,0.63,0.5,0.8,0.9c0.13,0.37,0.1,0.77-0.1,1.2c-0.97,1.97-2.22,3.6-3.75,4.9
			c-2.5,5.53-3.47,8.85-2.9,9.95c0.2,0.33,0.3,0.7,0.3,1.1c0,0.37-0.13,0.67-0.4,0.9c-13.8,14.13-27,18.52-39.6,13.15h0.1
			c-12-5.07-20.75-8.13-26.25-9.2c-0.33-0.13-0.6-0.3-0.8-0.5c-7.77-7.97-18.28-11.03-31.55-9.2c-0.4,0.07-0.78-0.03-1.15-0.3
			c-0.33-0.27-0.53-0.6-0.6-1c-0.07-0.4,0.03-0.78,0.3-1.15c0.27-0.37,0.6-0.57,1-0.6c14.23-2,25.55,1.27,33.95,9.8
			c5.6,1.17,14.35,4.27,26.25,9.3c11.23,4.6,23.02,0.72,35.35-11.65c-0.47-2.27,0.63-6.33,3.3-12.2c0.1-0.27,0.25-0.48,0.45-0.65
			C328.08,73.55,329.17,72.22,330,70.55z"/>
	</g>
	<g>
		<path fill-rule="evenodd" clip-rule="evenodd" fill="#FFFFFF" d="M327.45,63.95c0.27-0.2,0.55-0.27,0.85-0.2
			c0.3,0.03,0.58,0.15,0.85,0.35c2.27,1.9,4.72,1.8,7.35-0.3c0.33-0.3,0.7-0.42,1.1-0.35c0.4,0.03,0.75,0.23,1.05,0.6
			c0.27,0.3,0.37,0.65,0.3,1.05c-0.03,0.43-0.2,0.8-0.5,1.1c-3.43,2.7-6.67,3.17-9.7,1.4c-9.5,18.8-17.98,29.92-25.45,33.35
			c-8.37,4.1-15.47-0.6-21.3-14.1c-5.17-11.83-13.5-18.77-25-20.8c-11.83-2-26.95,1.02-45.35,9.05c-19,8.2-33.73,12.73-44.2,13.6
			c-11.33,0.9-17.98-2.23-19.95-9.4c-3.8-12.57-10.82-26.53-21.05-41.9c-11.73-11.67-30.77-19.7-57.1-24.1
			C43.08,8.9,27.07,8.75,21.3,12.85c-6.7,4.97-11.58,6.2-14.65,3.7c-0.37-0.27-0.57-0.6-0.6-1c-0.07-0.4,0.03-0.78,0.3-1.15
			c0.23-0.37,0.57-0.57,1-0.6c0.4-0.07,0.78,0.03,1.15,0.3c2.13,1.37,5.78,0.13,10.95-3.7c6.1-4.7,22.92-4.73,50.45-0.1
			c27.2,4.57,46.78,12.92,58.75,25.05c0.07,0.03,0.15,0.1,0.25,0.2c10.43,15.73,17.6,30.02,21.5,42.85v0.1
			c1.8,5.5,7.4,7.87,16.8,7.1c10.2-0.9,24.6-5.35,43.2-13.35c19.1-8.33,34.82-11.4,47.15-9.2c12.57,2.13,21.67,9.65,27.3,22.55
			c4.87,11.2,10.58,15.38,17.15,12.55c7.2-3.5,15.45-14.68,24.75-33.55C326.92,64.27,327.15,64.05,327.45,63.95z"/>
	</g>
</g>
</svg>
