<?xml version="1.0" encoding="utf-8"?>
<!-- Generator: Adobe Illustrator 16.0.0, SVG Export Plug-In . SVG Version: 6.00 Build 0)  -->
<!DOCTYPE svg PUBLIC "-//W3C//DTD SVG 1.1//EN" "http://www.w3.org/Graphics/SVG/1.1/DTD/svg11.dtd">
<svg version="1.1" id="Layer_1" xmlns="http://www.w3.org/2000/svg" xmlns:xlink="http://www.w3.org/1999/xlink" x="0px" y="0px"
	 width="319px" height="75px" viewBox="0 0 319 75" enable-background="new 0 0 319 75" xml:space="preserve">
<g>
	<g>
		<path fill-rule="evenodd" clip-rule="evenodd" fill-opacity="0.149" d="M60.55,29.7c12.37-2.83,22.12-0.85,29.25,5.95
			c6.53,6.03,18.87,8.67,37,7.9c19.27-0.77,30.8,0.83,34.6,4.8c3.63,3.47,15.58,7.97,35.85,13.5h-0.1
			c20.37,5.47,41.68,6.2,63.95,2.2V64c0.77-0.1,1.88-0.18,3.35-0.25c0.43,0,0.8,0.15,1.1,0.45c0.3,0.27,0.45,0.63,0.45,1.1
			c0,0.4-0.13,0.75-0.4,1.05c-0.3,0.3-0.65,0.45-1.05,0.45c-1.33,0.07-2.33,0.15-3,0.25h0.1c-22.73,4.13-44.48,3.4-65.25-2.2
			c-21.03-5.8-33.42-10.6-37.15-14.4c-3.57-3.3-14.33-4.57-32.3-3.8c-19.23,0.77-32.32-2.15-39.25-8.75
			c-6.43-6.03-15.25-7.78-26.45-5.25c-0.47,0.07-0.85,0-1.15-0.2c-0.43-0.2-0.67-0.52-0.7-0.95c-0.1-0.43-0.05-0.82,0.15-1.15
			C59.75,29.95,60.08,29.73,60.55,29.7z"/>
	</g>
	<g>
		<path fill-rule="evenodd" clip-rule="evenodd" fill="#FFFFFF" d="M303.6,55.6c0.2-0.13,0.43-0.23,0.7-0.3
			c0.4-0.03,0.78,0.07,1.15,0.3c1.83,1.33,3.9,1.37,6.2,0.1c0.37-0.2,0.78-0.25,1.25-0.15c0.37,0.1,0.67,0.33,0.9,0.7
			c0.17,0.33,0.2,0.73,0.1,1.2c-0.1,0.37-0.33,0.68-0.7,0.95c-1.8,0.97-3.48,1.42-5.05,1.35c-0.17,0.07-0.3,0.15-0.4,0.25
			c-0.4,0.13-0.78,0.13-1.15,0c-15.8-6.3-30.1-7.43-42.9-3.4h0.1c-23.4,8.5-45.87,9.87-67.4,4.1c-22-6-34.25-13.43-36.75-22.3
			c-2.53-7.7-10.37-12.03-23.5-13c-14.43-1.13-26.28-5.13-35.55-12C91.8,7,77.37,5.75,57.3,9.65C37.1,13.42,25.23,16.87,21.7,20
			c-0.03,0.07-0.08,0.1-0.15,0.1c-3.33,2.53-6.92,2.65-10.75,0.35c-0.4-0.2-0.63-0.5-0.7-0.9c-0.1-0.4-0.03-0.78,0.2-1.15
			c0.2-0.4,0.5-0.63,0.9-0.7c0.4-0.1,0.82-0.05,1.25,0.15c2.53,1.53,4.93,1.48,7.2-0.15c3.67-3.43,16.02-7.12,37.05-11.05h0.1
			c21.13-4.13,36.35-2.7,45.65,4.3c8.87,6.53,20.18,10.32,33.95,11.35c14.83,1.07,23.55,6.13,26.15,15.2
			c2.6,7.83,14.17,14.57,34.7,20.2h-0.1c20.93,5.63,42.78,4.3,65.55-4h0.1C275.07,49.8,288.67,50.43,303.6,55.6z"/>
	</g>
</g>
</svg>
