<?xml version="1.0" encoding="utf-8"?>
<!-- Generator: Adobe Illustrator 16.0.0, SVG Export Plug-In . SVG Version: 6.00 Build 0)  -->
<!DOCTYPE svg PUBLIC "-//W3C//DTD SVG 1.1//EN" "http://www.w3.org/Graphics/SVG/1.1/DTD/svg11.dtd">
<svg version="1.1" id="Layer_1" xmlns="http://www.w3.org/2000/svg" xmlns:xlink="http://www.w3.org/1999/xlink" x="0px" y="0px"
	 width="386.42px" height="110.46px" viewBox="0 0 386.42 110.46" enable-background="new 0 0 386.42 110.46" xml:space="preserve">
<g>
	<g>
		<path fill="#010101" fill-opacity="0.149" d="M356.82,19.09c0.27,0,0.53,0.07,0.8,0.2c2.53,1.53,4.78,1.67,6.75,0.4
			c0.3-0.27,0.65-0.35,1.05-0.25c0.43,0.07,0.77,0.27,1,0.6c0.27,0.33,0.37,0.7,0.3,1.1c-0.1,0.4-0.3,0.73-0.6,1
			c-2.7,2.03-5.82,2.12-9.35,0.25c-1.43,0.9-2.15,2.07-2.15,3.5c0.1,1.93,1.32,4.28,3.65,7.05c0.27,0.33,0.4,0.67,0.4,1v10.6
			c0,0.2-0.02,0.38-0.05,0.55c-1.77,5.1,3.93,17.39,17.1,36.85c3.73,5.57,4.78,10.2,3.15,13.9c-1.43,3.67-5.5,6.4-12.2,8.2
			c-12.33,3.2-34.22,2.93-65.65-0.8c-62.47-7.37-106.52-14.35-132.15-20.95c-25.43-6.63-45.58-10.27-60.45-10.9
			c-14.97-0.67-30.43-1.2-46.4-1.6c-16.87-0.47-27.27-5.82-31.2-16.05c-3.8-9.3-4.85-16.02-3.15-20.15
			c-4.07-3.5-4.92-7.02-2.55-10.55c1.83-6.23-0.27-10.63-6.3-13.2c-0.37-0.2-0.62-0.48-0.75-0.85c-0.2-0.4-0.2-0.8,0-1.2
			c0.13-0.4,0.42-0.65,0.85-0.75c0.33-0.23,0.72-0.23,1.15,0c7.77,3.37,10.4,9.08,7.9,17.15c-0.07,0.17-0.12,0.3-0.15,0.4
			c-1.43,2.47-0.55,4.9,2.65,7.3c0.33,0.27,0.55,0.57,0.65,0.9c0.03,0.37-0.02,0.73-0.15,1.1c-1.87,3.47-0.98,9.7,2.65,18.7
			c3.7,8.97,13.2,13.68,28.5,14.15c16,0.4,31.48,0.93,46.45,1.6c14.97,0.6,35.32,4.25,61.05,10.95
			c25.53,6.57,69.47,13.53,131.8,20.9c30.9,3.7,52.38,3.98,64.45,0.85c5.5-1.43,8.92-3.57,10.25-6.4c1-2.9,0.02-6.58-2.95-11.05
			c-13.77-20.33-19.62-33.42-17.55-39.25v-9.85c-2.73-3.27-4.1-6.1-4.1-8.5c-0.13-2.83,1.38-5.07,4.55-6.7
			C356.27,19.16,356.52,19.09,356.82,19.09z"/>
	</g>
	<g>
		<path fill="#660000" d="M368.02,17.69c0.27,0.3,0.38,0.65,0.35,1.05c-0.13,0.43-0.35,0.77-0.65,1c-2.7,2.07-5.82,2.15-9.35,0.25
			c-1.37,0.93-2.05,2.08-2.05,3.45c0.13,1.9,1.38,4.2,3.75,6.9c0.03,0,0.05,0.04,0.05,0.1c3.03,2.97,4.22,6.95,3.55,11.95
			c0,0.07,0,0.15,0,0.25c-0.27,1.33,0.53,3.48,2.4,6.45v-0.1c13.5,20.64,15.13,35.27,4.9,43.9c-9.63,8.43-30.67,10.95-63.1,7.55
			c-65.97-7.07-111.77-13.9-137.4-20.5c-25.47-6.67-45.7-10.97-60.7-12.9c-15-2-29.22-2.37-42.65-1.1
			c-14.3,1.33-24.47-3.4-30.5-14.2c-5.97-10.57-7.45-22.55-4.45-35.95c0-0.17,0.05-0.33,0.15-0.5c1.5-2.67,1.38-4.68-0.35-6.05
			c-2.37-1.63-6.72-2.53-13.05-2.7c-3.63,2.3-6.72,2.2-9.25-0.3c-0.3-0.3-0.45-0.65-0.45-1.05c0-0.47,0.15-0.85,0.45-1.15
			c0.27-0.33,0.63-0.5,1.1-0.5c0.4,0,0.75,0.17,1.05,0.5c1.6,1.33,3.53,1.25,5.8-0.25c0.23-0.2,0.53-0.3,0.9-0.3
			c7.53,0.17,12.62,1.27,15.25,3.3c3.3,2.23,3.75,5.53,1.35,9.9c-2.77,12.47-1.37,23.65,4.2,33.55c5.47,9.67,14.63,13.89,27.5,12.65
			c13.63-1.27,28.08-0.92,43.35,1.05c15.03,1.97,35.4,6.3,61.1,13c25.53,6.53,71.17,13.33,136.9,20.4c31.2,3.33,51.46,1.07,60.8-6.8
			c8.63-7.73,6.82-21.02-5.45-39.85h-0.1c-2.54-4.03-3.45-7-2.75-8.9c0.46-3.9-0.45-6.97-2.75-9.2c0-0.07-0.04-0.1-0.1-0.1
			c-3.07-3.43-4.6-6.4-4.6-8.9c-0.27-2.8,1.22-5.02,4.45-6.65c0.2-0.17,0.46-0.25,0.8-0.25c0.23,0,0.48,0.08,0.75,0.25
			c2.57,1.53,4.82,1.65,6.75,0.35c0.3-0.23,0.65-0.3,1.05-0.2C367.45,17.13,367.78,17.33,368.02,17.69z"/>
	</g>
	<g>
		<g>
			
				<radialGradient id="SVGID_1_" cx="269.2168" cy="97.4683" r="4.449" gradientTransform="matrix(1 0 0 -1 94 115.46)" gradientUnits="userSpaceOnUse">
				<stop  offset="0" style="stop-color:#FFFFFF"/>
				<stop  offset="1" style="stop-color:#FFFFFF;stop-opacity:0"/>
			</radialGradient>
			<path fill="url(#SVGID_1_)" d="M367.82,18.09c-0.07,0-0.1,0.02-0.1,0.05c-3.63,2.2-6.65,2.2-9.05,0
				c-0.04-0.03-0.05-0.08-0.05-0.15c-0.07-0.07-0.07-0.1,0-0.1c0.03-0.03,0.08-0.05,0.15-0.05c0.03-0.07,0.08-0.07,0.15,0
				c2.23,2.1,5.1,2.1,8.6,0c0-0.07,0.05-0.07,0.15,0l0.05,0.05C367.78,17.89,367.82,17.96,367.82,18.09z"/>
			
				<radialGradient id="SVGID_2_" cx="264.0654" cy="89.1177" r="7.5266" gradientTransform="matrix(1 0 0 -1 94 115.46)" gradientUnits="userSpaceOnUse">
				<stop  offset="0" style="stop-color:#FFFFFF"/>
				<stop  offset="1" style="stop-color:#FFFFFF;stop-opacity:0"/>
			</radialGradient>
			<path fill="url(#SVGID_2_)" d="M355.82,18.99c0-0.07,0.03-0.07,0.1,0c0.03,0,0.08,0.03,0.15,0.1c0.07,0,0.1,0.02,0.1,0.05
				c-0.07,0.07-0.1,0.12-0.1,0.15c-1.5,1.23-1.88,3-1.15,5.3c0.67,2.4,2.45,5.37,5.35,8.9c0.07,0,0.1,0.03,0.1,0.1
				c-0.07,0.04-0.1,0.08-0.1,0.15c-0.03,0.03-0.08,0.05-0.15,0.05c-0.03-0.03-0.08-0.05-0.15-0.05c-2.9-3.63-4.72-6.65-5.45-9.05
				C353.82,22.16,354.25,20.26,355.82,18.99z"/>
			
				<radialGradient id="SVGID_3_" cx="271.5654" cy="66.7681" r="7.7502" gradientTransform="matrix(1 0 0 -1 94 115.46)" gradientUnits="userSpaceOnUse">
				<stop  offset="0" style="stop-color:#FFFFFF"/>
				<stop  offset="1" style="stop-color:#FFFFFF;stop-opacity:0"/>
			</radialGradient>
			<path fill="url(#SVGID_3_)" d="M362.12,41.64c0.07,0,0.12,0.02,0.15,0.05c0.07,0,0.1,0.03,0.1,0.1c-0.07,0.03-0.1,0.08-0.1,0.15
				c-1.43,1.23,1.87,7.93,9.9,20.1c0.07,0,0.1,0.05,0.1,0.15c-0.07,0-0.1,0.03-0.1,0.1c-0.04,0.03-0.08,0.05-0.15,0.05
				c-0.03-0.03-0.08-0.05-0.15-0.05c-8.13-12.43-11.4-19.32-9.8-20.65C362.07,41.58,362.08,41.58,362.12,41.64z"/>
			
				<radialGradient id="SVGID_4_" cx="260.5938" cy="26.5674" r="24.1943" gradientTransform="matrix(1 0 0 -1 94 115.46)" gradientUnits="userSpaceOnUse">
				<stop  offset="0" style="stop-color:#FFFFFF"/>
				<stop  offset="1" style="stop-color:#FFFFFF;stop-opacity:0"/>
			</radialGradient>
			<path fill="url(#SVGID_4_)" d="M333.12,100.29c0.07-0.07,0.12-0.1,0.15-0.1c28.1-0.37,42.25-7.93,42.45-22.7
				c0-0.07,0.02-0.12,0.05-0.15c0-0.07,0.03-0.07,0.1,0c0.07,0,0.12,0.02,0.15,0.05c0.07,0,0.1,0.03,0.1,0.1
				c-0.17,14.97-14.45,22.67-42.85,23.1c-0.03,0-0.05-0.03-0.05-0.1c-0.07-0.03-0.1-0.08-0.1-0.15
				C333.05,100.31,333.05,100.29,333.12,100.29z"/>
			
				<radialGradient id="SVGID_5_" cx="131.1836" cy="29.168" r="57.4438" gradientTransform="matrix(1 0 0 -1 94 115.46)" gradientUnits="userSpaceOnUse">
				<stop  offset="0" style="stop-color:#FFFFFF"/>
				<stop  offset="1" style="stop-color:#FFFFFF;stop-opacity:0"/>
			</radialGradient>
			<path fill="url(#SVGID_5_)" d="M168.42,77.34c0-0.07,0.05-0.07,0.15,0c37,8.9,74.77,14.78,113.3,17.65
				c0.03,0,0.08,0.02,0.15,0.05c0.03,0,0.05,0.03,0.05,0.1c-0.03,0.03-0.05,0.08-0.05,0.15c-0.07,0.03-0.12,0.05-0.15,0.05
				c-38.53-2.8-76.33-8.68-113.4-17.65c-0.03-0.03-0.08-0.05-0.15-0.05c-0.03-0.07-0.03-0.12,0-0.15
				C168.32,77.43,168.35,77.38,168.42,77.34z"/>
			
				<radialGradient id="SVGID_6_" cx="21.5439" cy="46.6665" r="35.1977" gradientTransform="matrix(1 0 0 -1 94 115.46)" gradientUnits="userSpaceOnUse">
				<stop  offset="0" style="stop-color:#FFFFFF"/>
				<stop  offset="1" style="stop-color:#FFFFFF;stop-opacity:0"/>
			</radialGradient>
			<path fill="url(#SVGID_6_)" d="M150.62,73.64c-0.07,0.03-0.12,0.05-0.15,0.05c-27.27-6.93-50.55-10.07-69.85-9.4
				c-0.07,0-0.1-0.03-0.1-0.1c-0.03-0.03-0.05-0.08-0.05-0.15c-0.07-0.07-0.07-0.1,0-0.1c0.03-0.03,0.08-0.05,0.15-0.05
				c19.3-0.73,42.6,2.42,69.9,9.45l0.1,0.05c0.03,0,0.05,0.05,0.05,0.15C150.63,73.54,150.62,73.58,150.62,73.64z"/>
			
				<radialGradient id="SVGID_7_" cx="-79.1846" cy="109.7671" r="4.1508" gradientTransform="matrix(1 0 0 -1 94 115.46)" gradientUnits="userSpaceOnUse">
				<stop  offset="0" style="stop-color:#FFFFFF"/>
				<stop  offset="1" style="stop-color:#FFFFFF;stop-opacity:0"/>
			</radialGradient>
			<path fill="url(#SVGID_7_)" d="M10.62,5.54c0.03-0.03,0.08-0.03,0.15,0c2.7,1.33,5.03,1.33,7,0c0-0.03,0.05-0.03,0.15,0l0.05,0.1
				c0.07,0,0.1,0.05,0.1,0.15c-0.07,0-0.1,0.03-0.1,0.1c-2.1,1.4-4.55,1.4-7.35,0c-0.07,0-0.1-0.03-0.1-0.1
				c-0.03-0.07-0.03-0.12,0-0.15C10.52,5.58,10.55,5.54,10.62,5.54z"/>
			
				<radialGradient id="SVGID_8_" cx="-62.6841" cy="106.6655" r="7.2131" gradientTransform="matrix(1 0 0 -1 94 115.46)" gradientUnits="userSpaceOnUse">
				<stop  offset="0" style="stop-color:#FFFFFF"/>
				<stop  offset="1" style="stop-color:#FFFFFF;stop-opacity:0"/>
			</radialGradient>
			<path fill="url(#SVGID_8_)" d="M24.42,5.19c4.93,0.23,8.18,1.28,9.75,3.15c1.63,1.77,1.62,4.37-0.05,7.8
				c0,0.07-0.03,0.12-0.1,0.15c-0.03,0-0.08-0.02-0.15-0.05c-0.07,0-0.1-0.03-0.1-0.1c-0.03-0.03-0.03-0.08,0-0.15
				c1.6-3.23,1.63-5.72,0.1-7.45c-1.53-1.77-4.68-2.77-9.45-3c-0.03-0.03-0.08-0.05-0.15-0.05c-0.03-0.07-0.03-0.12,0-0.15
				c0-0.07,0.03-0.12,0.1-0.15C24.37,5.13,24.38,5.13,24.42,5.19z"/>
			
				<radialGradient id="SVGID_9_" cx="-50.3911" cy="70.3804" r="22.2762" gradientTransform="matrix(1 0 0 -1 94 115.46)" gradientUnits="userSpaceOnUse">
				<stop  offset="0" style="stop-color:#FFFFFF"/>
				<stop  offset="1" style="stop-color:#FFFFFF;stop-opacity:0"/>
			</radialGradient>
			<path fill="url(#SVGID_9_)" d="M32.17,25.89c0.07,0.07,0.1,0.12,0.1,0.15c0.1,21.23,7.75,33.85,22.95,37.85l0.05,0.05
				c0.07,0,0.1,0.07,0.1,0.2c-0.07,0-0.1,0.02-0.1,0.05c-0.03,0.07-0.08,0.1-0.15,0.1c-15.33-4.07-23.08-16.82-23.25-38.25
				c-0.03-0.03-0.03-0.08,0-0.15c0.07-0.03,0.12-0.03,0.15,0C32.08,25.86,32.13,25.86,32.17,25.89z"/>
		</g>
	</g>
</g>
</svg>
