<?xml version="1.0" encoding="utf-8"?>
<!-- Generator: Adobe Illustrator 16.0.0, SVG Export Plug-In . SVG Version: 6.00 Build 0)  -->
<!DOCTYPE svg PUBLIC "-//W3C//DTD SVG 1.1//EN" "http://www.w3.org/Graphics/SVG/1.1/DTD/svg11.dtd">
<svg version="1.1" id="Layer_1" xmlns="http://www.w3.org/2000/svg" xmlns:xlink="http://www.w3.org/1999/xlink" x="0px" y="0px"
	 width="339px" height="97px" viewBox="0 0 339 97" enable-background="new 0 0 339 97" xml:space="preserve">
<g>
	<g>
		<path fill-opacity="0.149" d="M323.25,44.6c-0.87-10.07-0.23-16.12,1.9-18.15c0.3-0.33,0.65-0.48,1.05-0.45
			c0.43-0.03,0.82,0.12,1.15,0.45c0.3,0.27,0.45,0.6,0.45,1c0,0.43-0.13,0.83-0.4,1.2c-1.5,1.77-1.88,6.9-1.15,15.4
			c2.7,7.57,0.65,18.23-6.15,32c-6.9,14.1-26.05,18.07-57.45,11.9c-30.43-5.97-52.9-9.75-67.4-11.35c-14.7-1.7-28-4.13-39.9-7.3
			c-11.8-3.17-22.85-5.25-33.15-6.25h-0.05c-42.87-5.27-67.2-10.52-73-15.75c-0.23-0.23-0.4-0.52-0.5-0.85
			c-1.87-8.6-4.2-12.67-7-12.2c-2.4,0.57-4.32,0.28-5.75-0.85c-1.43-0.97-2.35-2.72-2.75-5.25c0-0.07-0.02-0.12-0.05-0.15
			c-0.3-5.87-2.02-9.63-5.15-11.3c-2.13-1.13-5.08-1.93-8.85-2.4v-0.1c-2.53-0.4-5.37-0.63-8.5-0.7c-0.43-0.07-0.78-0.23-1.05-0.5
			c-1.07-0.23-2.08-0.73-3.05-1.5c-0.37-0.27-0.57-0.6-0.6-1c-0.07-0.47,0.03-0.87,0.3-1.2c0.23-0.33,0.58-0.52,1.05-0.55
			c0.4-0.07,0.77,0.03,1.1,0.3c2.03,1.4,4.4,1.03,7.1-1.1C15.82,7.68,16.2,7.6,16.6,7.7c0.4-0.03,0.73,0.13,1,0.5
			c0.23,0.37,0.37,0.75,0.4,1.15c-0.07,0.4-0.27,0.72-0.6,0.95c-0.27,0.2-0.5,0.38-0.7,0.55c1,0.13,1.97,0.25,2.9,0.35l-0.05,0.05
			c4.17,0.53,7.45,1.43,9.85,2.7h-0.05c4.1,1.9,6.35,6.45,6.75,13.65c0.03,0.03,0.05,0.08,0.05,0.15c0.27,1.5,0.82,2.57,1.65,3.2
			c0.77,0.5,1.83,0.58,3.2,0.25c4.63-1.27,8.17,3.42,10.6,14.05c6.3,4.77,29.95,9.68,70.95,14.75c10.4,1,21.62,3.12,33.65,6.35
			c11.7,3.13,24.82,5.53,39.35,7.2s37.08,5.47,67.65,11.4c29.53,5.8,47.58,2.38,54.15-10.25c6.37-12.9,8.38-22.82,6.05-29.75
			C323.3,44.82,323.25,44.7,323.25,44.6z"/>
	</g>
	<g>
		<path fill="#660000" d="M323.15,18.6c0.4-0.03,0.75,0.1,1.05,0.4c2.2,1.6,4.32,1.55,6.35-0.15c0.37-0.23,0.75-0.33,1.15-0.3
			c0.4,0.03,0.77,0.2,1.1,0.5c0.23,0.33,0.35,0.7,0.35,1.1c-0.07,0.43-0.25,0.8-0.55,1.1c-2.6,2.17-5.3,2.65-8.1,1.45
			c-0.97,6.5-3.73,19.15-8.3,37.95c-5.47,22.17-23.3,30.3-53.5,24.4c-29.17-5.67-50.98-9.3-65.45-10.9
			c-14.7-1.73-27.98-4.18-39.85-7.35c-11.83-3.17-22.88-5.25-33.15-6.25h-0.1c-43.17-5.33-65.97-10.97-68.4-16.9
			c-0.07-0.17-0.12-0.33-0.15-0.5c-0.53-4.23-1.33-7.37-2.4-9.4c-0.83-1.43-1.87-2.12-3.1-2.05c-4.73,0.97-7.87-3.03-9.4-12
			c-2.97-5.63-6.12-9.3-9.45-11C27.85,7,23.83,6.8,19.2,8.1c-0.03,0.03-0.1,0.05-0.2,0.05c-3.93,2.93-7.43,3.23-10.5,0.9
			c-0.33-0.27-0.53-0.6-0.6-1c-0.03-0.47,0.08-0.87,0.35-1.2c0.2-0.33,0.52-0.53,0.95-0.6c0.4-0.07,0.8,0.03,1.2,0.3
			c2,1.43,4.37,1.07,7.1-1.1c0.2-0.23,0.48-0.35,0.85-0.35c5.53-1.5,10.3-1.2,14.3,0.9c3.9,1.9,7.52,6.05,10.85,12.45
			c0.07,0.17,0.12,0.32,0.15,0.45c1.17,6.77,3.17,10.03,6,9.8c2.53-0.47,4.62,0.72,6.25,3.55c1.23,2.17,2.15,5.62,2.75,10.35
			c2.97,4.87,24.93,9.83,65.9,14.9c10.43,1.03,21.65,3.15,33.65,6.35c11.73,3.13,24.85,5.53,39.35,7.2
			c14.53,1.67,36.43,5.35,65.7,11.05c28.07,5.43,44.73-1.97,50-22.2c5.2-21.2,8.05-34.48,8.55-39.85c-0.03-0.37,0.08-0.68,0.35-0.95
			C322.45,18.8,322.78,18.63,323.15,18.6z"/>
	</g>
	<g>
		<g>
			
				<radialGradient id="SVGID_1_" cx="176.127" cy="-57.25" r="37.2046" gradientTransform="matrix(0.9925 -0.1223 -0.0984 -0.7983 133.164 33.2517)" gradientUnits="userSpaceOnUse">
				<stop  offset="0" style="stop-color:#FFFFFF"/>
				<stop  offset="1" style="stop-color:#FFFFFF;stop-opacity:0"/>
			</radialGradient>
			<path fill="url(#SVGID_1_)" d="M330.85,20.45l0.05-0.05l0.1-0.05c0.13-0.1,0.3-0.25,0.5-0.45c0-0.03,0.05-0.03,0.15,0l0.05,0.1
				c0.07-0.03,0.12,0,0.15,0.1c-0.07,0.03-0.1,0.07-0.1,0.1c-0.03,0.06-0.08,0.1-0.15,0.1c-0.17,0.13-0.33,0.25-0.5,0.35l-0.05,0.05
				l-0.1,0.05c-0.03-0.03-0.05-0.08-0.05-0.15C330.83,20.57,330.82,20.52,330.85,20.45z M324.3,20.65l0.1,0.1
				c0,0.03-0.03,0.08-0.1,0.15c-0.03,0-0.03,0.02,0,0.05c-0.07,0-0.12,0-0.15,0l-0.05-0.05c-0.27-0.13-0.48-0.25-0.65-0.35
				c-0.57,5.63-3.42,18.88-8.55,39.75c-5.3,20.93-22.1,28.85-50.4,23.75c-0.07-0.03-0.12-0.07-0.15-0.1
				c-0.1-0.03-0.12-0.05-0.05-0.05c0-0.07,0.02-0.13,0.05-0.2c0.07-0.07,0.12-0.07,0.15,0c28.07,5.07,44.73-2.78,50-23.55
				c5.23-21.27,8.1-34.58,8.6-39.95c0-0.07,0.02-0.13,0.05-0.2c0-0.07,0.03-0.07,0.1,0c0.03-0.07,0.08-0.07,0.15,0
				c0.27,0.2,0.57,0.4,0.9,0.6V20.65L324.3,20.65z"/>
			
				<radialGradient id="SVGID_2_" cx="233.9492" cy="81.3506" r="3.9173" gradientTransform="matrix(1 0 0 -1 94 102)" gradientUnits="userSpaceOnUse">
				<stop  offset="0" style="stop-color:#FFFFFF"/>
				<stop  offset="1" style="stop-color:#FFFFFF;stop-opacity:0"/>
			</radialGradient>
			<path fill="url(#SVGID_2_)" d="M324.15,20.95c0.03,0,0.08,0,0.15,0c-0.03-0.03-0.03-0.05,0-0.05c0.07-0.07,0.1-0.12,0.1-0.15
				l-0.1-0.1c2.23,1.3,4.42,1.23,6.55-0.2c-0.03,0.07-0.02,0.12,0.05,0.15c0,0.07,0.02,0.12,0.05,0.15l0.1-0.05l0.05-0.05
				c0.17-0.1,0.33-0.22,0.5-0.35h0.25l0.1,0.1c0.07,0,0.1,0.05,0.1,0.15c-0.07,0-0.1,0.02-0.1,0.05c-0.03,0.07-0.08,0.12-0.15,0.15
				l-0.75-0.05C328.78,22.27,326.48,22.35,324.15,20.95z"/>
			
				<radialGradient id="SVGID_3_" cx="-82.8848" cy="197.6475" r="4.9884" gradientTransform="matrix(0.9924 -0.1228 -0.2031 -1.6415 177.147 347.3085)" gradientUnits="userSpaceOnUse">
				<stop  offset="0" style="stop-color:#FFFFFF"/>
				<stop  offset="1" style="stop-color:#FFFFFF;stop-opacity:0"/>
			</radialGradient>
			<path fill="url(#SVGID_3_)" d="M46.5,29.2c0-0.03,0.05-0.03,0.15,0c0.9,0.73,1.97,1.03,3.2,0.9c1.93-0.37,3.57,0.57,4.9,2.8
				c1.17,2.13,2.03,5.48,2.6,10.05c0.17,0.53,0.57,1.02,1.2,1.45c0.03,0,0.05,0.03,0.05,0.1c0,0.03,0,0.1,0,0.2
				c-0.07,0.07-0.12,0.1-0.15,0.1c-0.07,0-0.12-0.03-0.15-0.1c-0.67-0.53-1.1-1.07-1.3-1.6V43c-0.57-4.5-1.45-7.82-2.65-9.95
				c-1.17-2-2.67-2.87-4.5-2.6c-1.3,0.2-2.47-0.08-3.5-0.85c-0.07-0.07-0.07-0.12,0-0.15c-0.07-0.07-0.07-0.13,0-0.2
				C46.35,29.22,46.4,29.2,46.5,29.2z"/>
			
				<radialGradient id="SVGID_4_" cx="-39.8286" cy="-762.8311" r="44.0895" gradientTransform="matrix(0.9925 -0.1225 -0.0382 -0.3094 108.1118 -187.1929)" gradientUnits="userSpaceOnUse">
				<stop  offset="0" style="stop-color:#FFFFFF"/>
				<stop  offset="1" style="stop-color:#FFFFFF;stop-opacity:0"/>
			</radialGradient>
			<path fill="url(#SVGID_4_)" d="M64.1,47.5c0-0.07,0.02-0.07,0.05,0c9.9,3.83,29.98,7.62,60.25,11.35c2.27,0.23,4.6,0.5,7,0.8
				l0.05,0.1c0.07,0,0.1,0.05,0.1,0.15c-0.07,0-0.08,0.02-0.05,0.05c-0.03,0.07-0.08,0.1-0.15,0.1c-2.33-0.33-4.65-0.62-6.95-0.85
				c-30.37-3.77-50.48-7.57-60.35-11.4L64,47.7c-0.1,0-0.12-0.05-0.05-0.15C63.98,47.52,64.03,47.5,64.1,47.5z"/>
			
				<radialGradient id="SVGID_5_" cx="-123.7046" cy="-57.0225" r="4.1443" gradientTransform="matrix(0.9925 -0.1221 -0.0886 -0.7207 131.374 -47.3506)" gradientUnits="userSpaceOnUse">
				<stop  offset="0" style="stop-color:#FFFFFF"/>
				<stop  offset="1" style="stop-color:#FFFFFF;stop-opacity:0"/>
			</radialGradient>
			<path fill="url(#SVGID_5_)" d="M18.65,6.6v0.1c-0.07,0-0.08,0.02-0.05,0.05C15.1,9.52,12.03,9.9,9.4,7.9
				C9.3,7.87,9.25,7.82,9.25,7.75c-0.03,0-0.03-0.02,0-0.05C9.32,7.63,9.37,7.6,9.4,7.6c0.07-0.03,0.12-0.03,0.15,0
				c2.5,1.9,5.42,1.53,8.75-1.1c0-0.03,0.05-0.03,0.15,0L18.65,6.6z"/>
			
				<radialGradient id="SVGID_6_" cx="-107.5889" cy="-107.7266" r="10.4282" gradientTransform="matrix(0.9925 -0.1225 -0.0802 -0.6497 128.0936 -77.9696)" gradientUnits="userSpaceOnUse">
				<stop  offset="0" style="stop-color:#FFFFFF"/>
				<stop  offset="1" style="stop-color:#FFFFFF;stop-opacity:0"/>
			</radialGradient>
			<path fill="url(#SVGID_6_)" d="M18.65,6.6V6.55c0.03-0.07,0.08-0.1,0.15-0.1c5.1-1.43,9.53-1.2,13.3,0.7
				c3.23,1.67,6.32,5.02,9.25,10.05c0,0.03,0,0.08,0,0.15c-0.03,0.03-0.08,0.1-0.15,0.2c-0.03,0-0.08,0-0.15,0
				C41.02,17.48,41,17.43,41,17.4c-2.87-4.97-5.92-8.28-9.15-9.95c-3.67-1.8-7.98-2-12.95-0.6c-0.1,0-0.15-0.03-0.15-0.1l-0.1-0.05
				V6.6z"/>
			
				<radialGradient id="SVGID_7_" cx="65.9619" cy="-794.8057" r="62.5048" gradientTransform="matrix(0.9925 -0.1224 -0.0377 -0.306 107.9846 -162.3275)" gradientUnits="userSpaceOnUse">
				<stop  offset="0" style="stop-color:#FFFFFF"/>
				<stop  offset="1" style="stop-color:#FFFFFF;stop-opacity:0"/>
			</radialGradient>
			<path fill="url(#SVGID_7_)" d="M149.55,63.35c-0.07-0.03-0.07-0.08,0-0.15c0-0.03,0.02-0.05,0.05-0.05
				c0.07-0.07,0.12-0.07,0.15,0c2.63,0.53,5.32,1.2,8.05,2c11.83,3.13,25.05,5.55,39.65,7.25c0.87,0.07,3.52,0.32,7.95,0.75
				c13,1.87,30.25,4.9,51.75,9.1c0.03,0,0.07,0.02,0.1,0.05c0.07,0.07,0.1,0.12,0.1,0.15c-0.07,0.07-0.12,0.1-0.15,0.1
				c-0.07,0.07-0.12,0.1-0.15,0.1c-21.47-4.17-38.68-7.18-51.65-9.05c-4.5-0.43-7.17-0.7-8-0.8c-14.63-1.67-27.87-4.08-39.7-7.25
				c-2.73-0.73-5.42-1.42-8.05-2.05C149.62,63.47,149.58,63.42,149.55,63.35z"/>
		</g>
	</g>
</g>
</svg>
