<?xml version="1.0" encoding="utf-8"?>
<!-- Generator: Adobe Illustrator 16.0.0, SVG Export Plug-In . SVG Version: 6.00 Build 0)  -->
<!DOCTYPE svg PUBLIC "-//W3C//DTD SVG 1.1//EN" "http://www.w3.org/Graphics/SVG/1.1/DTD/svg11.dtd">
<svg version="1.1" id="Layer_1" xmlns="http://www.w3.org/2000/svg" xmlns:xlink="http://www.w3.org/1999/xlink" x="0px" y="0px"
	 width="234.33px" height="181.71px" viewBox="0 0 234.33 181.71" enable-background="new 0 0 234.33 181.71" xml:space="preserve">
<g>
	<g>
		<g>
			<polygon fill-rule="evenodd" clip-rule="evenodd" fill="#FFFFFF" fill-opacity="0.0941" points="231.87,179.58 2.47,179.58 
				2.47,2.13 15.37,2.13 231.87,2.13 			"/>
			
				<polygon fill-rule="evenodd" clip-rule="evenodd" fill="none" stroke="#000000" stroke-width="3" stroke-linecap="round" stroke-linejoin="round" stroke-miterlimit="3" points="
				231.87,179.58 2.47,179.58 2.47,2.13 15.37,2.13 231.87,2.13 			"/>
		</g>
	</g>
	<g>
		<path fill-rule="evenodd" clip-rule="evenodd" fill="#CCCCCC" d="M148.42,20.38c0.1,0.1,0.37,0.17,0.8,0.2v0.3h-4.55v-0.3
			c0.33,0,0.6-0.08,0.8-0.25c0.1-0.13,0.15-0.43,0.15-0.9v-2.75c0-0.57-0.02-0.93-0.05-1.1c-0.1-0.13-0.2-0.23-0.3-0.3
			c-0.17-0.13-0.33-0.2-0.5-0.2c-0.3,0-0.57,0.1-0.8,0.3c-0.3,0.13-0.58,0.33-0.85,0.6v3.45c0,0.5,0.05,0.8,0.15,0.9
			c0.13,0.17,0.42,0.25,0.85,0.25v0.3h-4.55v-0.3c0.27,0,0.47-0.03,0.6-0.1c0.1-0.1,0.2-0.2,0.3-0.3c0-0.1,0-0.35,0-0.75v-2.75
			c0-0.6-0.03-0.97-0.1-1.1c-0.03-0.13-0.12-0.23-0.25-0.3c-0.17-0.13-0.35-0.2-0.55-0.2c-0.23,0-0.43,0.07-0.6,0.2
			c-0.3,0.13-0.62,0.37-0.95,0.7v3.45c0,0.47,0.05,0.77,0.15,0.9c0.13,0.17,0.4,0.25,0.8,0.25v0.3h-4.55v-0.3
			c0.4,0,0.67-0.08,0.8-0.25c0.1-0.1,0.15-0.4,0.15-0.9v-3.6c0-0.5-0.05-0.82-0.15-0.95c-0.13-0.1-0.4-0.17-0.8-0.2v-0.25h3.6v0.85
			c0.47-0.4,0.9-0.67,1.3-0.8c0.43-0.2,0.88-0.3,1.35-0.3c0.57,0,1.05,0.12,1.45,0.35c0.37,0.17,0.65,0.47,0.85,0.9
			c0.47-0.43,0.95-0.73,1.45-0.9c0.4-0.23,0.87-0.35,1.4-0.35c0.63,0,1.12,0.12,1.45,0.35c0.37,0.2,0.63,0.47,0.8,0.8
			c0.1,0.3,0.15,0.78,0.15,1.45v2.65C148.22,19.92,148.28,20.24,148.42,20.38z M122.27,15.13c0,0.3-0.13,0.53-0.4,0.7
			c-0.17,0.2-0.4,0.3-0.7,0.3c-0.33,0-0.62-0.08-0.85-0.25s-0.38-0.25-0.45-0.25c-0.03-0.03-0.1-0.05-0.2-0.05
			c-0.2,0-0.37,0.05-0.5,0.15c-0.23,0.13-0.43,0.35-0.6,0.65c-0.17,0.47-0.25,0.95-0.25,1.45v1.9c0,0.27,0.02,0.43,0.05,0.5
			c0.07,0.13,0.17,0.22,0.3,0.25c0.13,0.07,0.4,0.1,0.8,0.1v0.3h-4.75v-0.3c0.37,0,0.63-0.07,0.8-0.2c0.1-0.13,0.15-0.48,0.15-1.05
			v-3.55c0-0.37-0.03-0.6-0.1-0.7c-0.03-0.13-0.1-0.23-0.2-0.3c-0.13-0.03-0.35-0.07-0.65-0.1v-0.25h3.6v1.45
			c0.57-0.67,1.07-1.1,1.5-1.3c0.43-0.27,0.83-0.4,1.2-0.4c0.4,0,0.68,0.1,0.85,0.3C122.13,14.61,122.27,14.83,122.27,15.13z
			 M124.77,16.73c-0.3-0.17-0.45-0.37-0.45-0.6c0-0.33,0.2-0.67,0.6-1c0.33-0.27,0.83-0.48,1.5-0.65c0.6-0.2,1.23-0.3,1.9-0.3
			c0.87,0,1.55,0.15,2.05,0.45c0.47,0.23,0.77,0.52,0.9,0.85c0.1,0.17,0.15,0.6,0.15,1.3v2.5c0,0.3,0,0.48,0,0.55
			c0.03,0.1,0.08,0.17,0.15,0.2c0.1,0.03,0.17,0.05,0.2,0.05c0.2,0,0.37-0.1,0.5-0.3l0.3,0.2c-0.3,0.33-0.62,0.57-0.95,0.7
			c-0.33,0.2-0.72,0.3-1.15,0.3c-0.5,0-0.9-0.1-1.2-0.3c-0.23-0.17-0.4-0.42-0.5-0.75c-1.07,0.7-2.02,1.05-2.85,1.05
			c-0.5,0-0.92-0.13-1.25-0.4c-0.33-0.23-0.5-0.53-0.5-0.9c0-0.47,0.28-0.9,0.85-1.3c0.6-0.43,1.85-0.97,3.75-1.6v-0.6
			c0-0.5-0.02-0.82-0.05-0.95c-0.1-0.13-0.25-0.25-0.45-0.35c-0.2-0.1-0.42-0.15-0.65-0.15c-0.43,0-0.77,0.07-1,0.2
			c-0.2,0.07-0.3,0.18-0.3,0.35c0,0.07,0.1,0.17,0.3,0.3c0.23,0.2,0.35,0.4,0.35,0.6c0,0.23-0.12,0.42-0.35,0.55
			c-0.23,0.17-0.52,0.25-0.85,0.25C125.37,16.98,125.03,16.89,124.77,16.73z M112.77,15.27h-1.65c0.3,0.2,0.52,0.38,0.65,0.55
			c0.13,0.27,0.2,0.53,0.2,0.8c0,0.47-0.17,0.87-0.5,1.2c-0.33,0.33-0.8,0.6-1.4,0.8c-0.57,0.17-1.1,0.25-1.6,0.25
			c-0.03,0-0.42,0-1.15,0c-0.27,0-0.48,0.07-0.65,0.2c-0.23,0.13-0.35,0.3-0.35,0.5c0,0.13,0.1,0.27,0.3,0.4
			c0.2,0.1,0.48,0.15,0.85,0.15h1.6c1.33,0,2.23,0.1,2.7,0.3c0.73,0.3,1.1,0.77,1.1,1.4c0,0.37-0.17,0.72-0.5,1.05
			c-0.33,0.3-0.77,0.52-1.3,0.65c-0.83,0.27-1.77,0.4-2.8,0.4c-0.77,0-1.48-0.05-2.15-0.15c-0.63-0.17-1.08-0.33-1.35-0.5
			c-0.3-0.2-0.45-0.42-0.45-0.65c0-0.2,0.12-0.38,0.35-0.55c0.2-0.17,0.58-0.32,1.15-0.45c-0.8-0.27-1.2-0.67-1.2-1.2
			c0-0.3,0.17-0.62,0.5-0.95c0.33-0.27,0.85-0.53,1.55-0.8c-0.8-0.2-1.38-0.48-1.75-0.85c-0.4-0.37-0.6-0.8-0.6-1.3
			c0-0.6,0.37-1.13,1.1-1.6c0.67-0.5,1.55-0.75,2.65-0.75c0.57,0,1.15,0.1,1.75,0.3h2.95V15.27z M108.27,14.63
			c-0.4,0-0.72,0.13-0.95,0.4c-0.23,0.3-0.35,0.87-0.35,1.7c0,0.67,0.12,1.13,0.35,1.4s0.52,0.4,0.85,0.4c0.4,0,0.72-0.13,0.95-0.4
			c0.23-0.27,0.35-0.75,0.35-1.45c0-0.83-0.13-1.4-0.4-1.7C108.87,14.74,108.6,14.63,108.27,14.63z M111.22,22.17
			c-0.2-0.13-0.47-0.23-0.8-0.3c-0.33-0.03-1.25-0.05-2.75-0.05c-0.6,0-1.02,0.03-1.25,0.1c-0.33,0.13-0.5,0.32-0.5,0.55
			c0,0.27,0.18,0.48,0.55,0.65c0.33,0.2,1.03,0.3,2.1,0.3c0.83,0,1.5-0.08,2-0.25c0.47-0.17,0.7-0.42,0.7-0.75
			C111.27,22.33,111.25,22.24,111.22,22.17z M127.67,19.77c0.37,0,0.73-0.13,1.1-0.4v-2.1c-0.73,0.3-1.28,0.63-1.65,1
			c-0.23,0.27-0.35,0.53-0.35,0.8c0,0.2,0.1,0.37,0.3,0.5C127.2,19.71,127.4,19.77,127.67,19.77z M84.77,11.52v7.35
			c0,0.53,0,0.83,0,0.9c0.03,0.2,0.12,0.33,0.25,0.4c0.17,0.07,0.43,0.1,0.8,0.1v0.25l-3.7,0.55v-1.05
			c-0.43,0.4-0.82,0.68-1.15,0.85c-0.4,0.13-0.82,0.2-1.25,0.2c-1.1,0-1.98-0.37-2.65-1.1c-0.53-0.6-0.8-1.35-0.8-2.25
			c0-0.7,0.17-1.32,0.5-1.85c0.33-0.57,0.8-0.98,1.4-1.25c0.5-0.3,1.1-0.45,1.8-0.45c0.4,0,0.77,0.08,1.1,0.25
			c0.3,0.1,0.65,0.3,1.05,0.6v-1.95c0-0.47-0.03-0.77-0.1-0.9c-0.1-0.13-0.22-0.23-0.35-0.3c-0.13-0.03-0.42-0.05-0.85-0.05v-0.3
			H84.77z M79.82,15.02c-0.2,0.17-0.37,0.42-0.5,0.75c-0.17,0.37-0.25,0.92-0.25,1.65c0,0.8,0.08,1.4,0.25,1.8
			c0.13,0.4,0.35,0.7,0.65,0.9c0.13,0.07,0.32,0.1,0.55,0.1c0.57,0,1.1-0.32,1.6-0.95v-3.4c-0.5-0.67-1.08-1-1.75-1
			C80.17,14.88,79.98,14.92,79.82,15.02z M66.82,15.08v4c0,0.37,0.03,0.6,0.1,0.7c0.03,0.13,0.12,0.23,0.25,0.3
			c0.1,0.07,0.2,0.1,0.3,0.1c0.43,0,0.82-0.23,1.15-0.7l0.3,0.15c-0.5,0.9-1.32,1.35-2.45,1.35c-0.57,0-1.05-0.13-1.45-0.4
			c-0.37-0.2-0.6-0.45-0.7-0.75c-0.03-0.17-0.05-0.58-0.05-1.25v-3.5h-1.15v-0.25c0.77-0.37,1.43-0.78,2-1.25
			c0.53-0.47,1-0.98,1.4-1.55h0.3v2.4h2.1v0.65H66.82z M98.22,14.17c0.87,0,1.53,0.15,2,0.45c0.5,0.23,0.82,0.52,0.95,0.85
			c0.1,0.17,0.15,0.6,0.15,1.3v2.5c0,0.3,0,0.48,0,0.55c0.03,0.1,0.08,0.17,0.15,0.2c0.1,0.03,0.17,0.05,0.2,0.05
			c0.2,0,0.37-0.1,0.5-0.3l0.3,0.2c-0.3,0.33-0.62,0.57-0.95,0.7c-0.33,0.2-0.72,0.3-1.15,0.3c-0.53,0-0.93-0.1-1.2-0.3
			c-0.23-0.17-0.4-0.42-0.5-0.75c-1.07,0.7-2.03,1.05-2.9,1.05c-0.47,0-0.87-0.13-1.2-0.4c-0.33-0.23-0.5-0.53-0.5-0.9
			c0-0.47,0.28-0.9,0.85-1.3c0.57-0.43,1.82-0.97,3.75-1.6v-0.6c0-0.5-0.03-0.82-0.1-0.95c-0.1-0.13-0.23-0.25-0.4-0.35
			c-0.2-0.1-0.42-0.15-0.65-0.15c-0.43,0-0.77,0.07-1,0.2c-0.2,0.07-0.3,0.18-0.3,0.35c0,0.07,0.1,0.17,0.3,0.3
			c0.23,0.2,0.35,0.4,0.35,0.6c0,0.23-0.12,0.42-0.35,0.55c-0.23,0.17-0.52,0.25-0.85,0.25c-0.4,0-0.75-0.08-1.05-0.25
			c-0.27-0.17-0.4-0.37-0.4-0.6c0-0.33,0.18-0.67,0.55-1c0.33-0.27,0.83-0.48,1.5-0.65C96.9,14.27,97.55,14.17,98.22,14.17z
			 M96.92,19.58c0.17,0.13,0.38,0.2,0.65,0.2c0.33,0,0.7-0.13,1.1-0.4v-2.1c-0.73,0.3-1.28,0.63-1.65,1
			c-0.23,0.27-0.35,0.53-0.35,0.8C96.67,19.27,96.75,19.44,96.92,19.58z M90.82,13.08c-0.27,0.23-0.62,0.35-1.05,0.35
			c-0.37,0-0.7-0.12-1-0.35c-0.3-0.17-0.45-0.4-0.45-0.7s0.15-0.55,0.45-0.75c0.3-0.23,0.63-0.35,1-0.35c0.43,0,0.78,0.12,1.05,0.35
			c0.3,0.2,0.45,0.45,0.45,0.75S91.12,12.91,90.82,13.08z M87.42,14.42h3.7v5.1c0,0.47,0.08,0.75,0.25,0.85
			c0.13,0.13,0.38,0.2,0.75,0.2v0.3h-4.7v-0.3c0.43,0,0.72-0.07,0.85-0.2c0.13-0.1,0.2-0.38,0.2-0.85v-3.8
			c0-0.43-0.07-0.72-0.2-0.85s-0.42-0.2-0.85-0.2V14.42z M42.72,14.73c0.53,0.33,0.8,0.7,0.8,1.1c0,0.3-0.12,0.52-0.35,0.65
			c-0.2,0.13-0.47,0.2-0.8,0.2c-0.37,0-0.67-0.08-0.9-0.25c-0.27-0.17-0.42-0.48-0.45-0.95c-0.03-0.3-0.13-0.5-0.3-0.6
			c-0.13-0.1-0.3-0.15-0.5-0.15c-0.27,0-0.53,0.1-0.8,0.3c-0.33,0.37-0.5,0.92-0.5,1.65c0,0.6,0.15,1.18,0.45,1.75
			c0.23,0.57,0.6,0.97,1.1,1.2c0.33,0.23,0.73,0.35,1.2,0.35c0.27,0,0.55-0.07,0.85-0.2c0.3-0.1,0.63-0.28,1-0.55l0.3,0.15
			c-0.43,0.57-0.97,0.98-1.6,1.25c-0.6,0.3-1.23,0.45-1.9,0.45c-1.2,0-2.13-0.33-2.8-1c-0.73-0.63-1.1-1.42-1.1-2.35
			c0-0.87,0.32-1.63,0.95-2.3c0.8-0.83,1.87-1.25,3.2-1.25C41.5,14.17,42.22,14.36,42.72,14.73z M33.77,14.17
			c0.4,0,0.68,0.1,0.85,0.3c0.27,0.13,0.4,0.35,0.4,0.65s-0.13,0.53-0.4,0.7c-0.17,0.2-0.4,0.3-0.7,0.3c-0.33,0-0.62-0.08-0.85-0.25
			s-0.38-0.25-0.45-0.25c-0.03-0.03-0.1-0.05-0.2-0.05c-0.2,0-0.37,0.05-0.5,0.15c-0.23,0.13-0.43,0.35-0.6,0.65
			c-0.17,0.47-0.25,0.95-0.25,1.45v1.9c0,0.27,0.02,0.43,0.05,0.5c0.07,0.13,0.17,0.22,0.3,0.25c0.13,0.07,0.4,0.1,0.8,0.1v0.3
			h-4.75v-0.3c0.37,0,0.63-0.07,0.8-0.2c0.1-0.13,0.15-0.48,0.15-1.05v-3.55c0-0.37-0.03-0.6-0.1-0.7c-0.03-0.13-0.1-0.23-0.2-0.3
			c-0.13-0.03-0.35-0.07-0.65-0.1v-0.25h3.6v1.45c0.57-0.67,1.07-1.1,1.5-1.3C33,14.31,33.4,14.17,33.77,14.17z M25.67,20.88h-4.75
			v-0.3c0.43,0,0.73-0.07,0.9-0.2c0.13-0.1,0.2-0.38,0.2-0.85v-3.8c0-0.43-0.07-0.72-0.2-0.85c-0.17-0.13-0.47-0.2-0.9-0.2v-0.25
			h3.75v5.1c0,0.47,0.07,0.75,0.2,0.85c0.17,0.13,0.43,0.2,0.8,0.2V20.88z M60.82,12.38c0,0.3-0.15,0.53-0.45,0.7
			c-0.27,0.23-0.62,0.35-1.05,0.35c-0.4,0-0.73-0.12-1-0.35c-0.3-0.17-0.45-0.4-0.45-0.7s0.15-0.55,0.45-0.75
			c0.27-0.23,0.6-0.35,1-0.35c0.43,0,0.78,0.12,1.05,0.35C60.67,11.83,60.82,12.08,60.82,12.38z M56.92,14.67v-0.25h3.75v5.1
			c0,0.47,0.07,0.75,0.2,0.85c0.13,0.13,0.4,0.2,0.8,0.2v0.3h-4.75v-0.3c0.43,0,0.72-0.07,0.85-0.2c0.17-0.1,0.25-0.38,0.25-0.85
			v-3.8c0-0.43-0.08-0.72-0.25-0.85C57.63,14.74,57.35,14.67,56.92,14.67z M54.22,14.42v5.05c0,0.47,0.05,0.77,0.15,0.9
			c0.13,0.1,0.38,0.17,0.75,0.2v0.3h-3.55v-0.85c-0.4,0.33-0.82,0.6-1.25,0.8c-0.43,0.17-0.9,0.25-1.4,0.25s-0.93-0.13-1.3-0.4
			c-0.4-0.2-0.67-0.43-0.8-0.7c-0.13-0.33-0.2-0.87-0.2-1.6v-2.55c0-0.5-0.05-0.82-0.15-0.95c-0.13-0.1-0.4-0.17-0.8-0.2v-0.25h3.6
			v4.35c0,0.47,0.02,0.77,0.05,0.9c0.07,0.17,0.17,0.28,0.3,0.35c0.13,0.07,0.28,0.1,0.45,0.1c0.23,0,0.45-0.05,0.65-0.15
			c0.23-0.13,0.52-0.37,0.85-0.7v-3.45c0-0.5-0.05-0.82-0.15-0.95c-0.13-0.1-0.4-0.17-0.8-0.2v-0.25H54.22z M24.37,11.63
			c0.3,0.2,0.45,0.45,0.45,0.75s-0.15,0.53-0.45,0.7c-0.27,0.23-0.62,0.35-1.05,0.35c-0.4,0-0.73-0.12-1-0.35
			c-0.3-0.17-0.45-0.4-0.45-0.7s0.15-0.55,0.45-0.75c0.27-0.23,0.6-0.35,1-0.35C23.75,11.27,24.1,11.39,24.37,11.63z M18.72,11.27
			v3.25h-0.35c-0.3-0.87-0.8-1.5-1.5-1.9c-0.77-0.47-1.63-0.7-2.6-0.7c-0.77,0-1.48,0.17-2.15,0.5c-0.67,0.33-1.15,0.77-1.45,1.3
			c-0.37,0.7-0.55,1.47-0.55,2.3c0,0.87,0.15,1.63,0.45,2.3c0.27,0.7,0.68,1.23,1.25,1.6c0.63,0.33,1.43,0.5,2.4,0.5
			c0.8,0,1.53-0.13,2.2-0.4s1.37-0.72,2.1-1.35v0.85c-0.73,0.53-1.48,0.92-2.25,1.15c-0.77,0.27-1.65,0.4-2.65,0.4
			c-1.37,0-2.58-0.2-3.65-0.6c-1.03-0.43-1.82-1.02-2.35-1.75c-0.57-0.73-0.85-1.52-0.85-2.35c0-0.9,0.3-1.75,0.9-2.55
			c0.63-0.8,1.5-1.42,2.6-1.85c1.03-0.47,2.15-0.7,3.35-0.7c0.9,0,1.87,0.15,2.9,0.45c0.57,0.17,0.92,0.25,1.05,0.25
			c0.2,0,0.37-0.05,0.5-0.15c0.13-0.1,0.23-0.28,0.3-0.55H18.72z"/>
	</g>
	<g>
		<g>
			<g>
				<path fill-rule="evenodd" clip-rule="evenodd" fill="#FFFFFF" d="M191.47,44.27c-0.07,1.1-0.77,2.03-2.1,2.8
					c-1.37,0.83-3.05,1.25-5.05,1.25c-1.97,0-3.65-0.42-5.05-1.25c-1.3-0.77-2-1.7-2.1-2.8c0-0.03,0-0.08,0-0.15
					c0-1.17,0.7-2.17,2.1-3c1.4-0.8,3.08-1.2,5.05-1.2c2,0,3.68,0.4,5.05,1.2c1.4,0.83,2.1,1.83,2.1,3
					C191.47,44.19,191.47,44.24,191.47,44.27z"/>
				
					<path fill-rule="evenodd" clip-rule="evenodd" fill="none" stroke="#FFFFFF" stroke-linecap="round" stroke-linejoin="round" stroke-miterlimit="3" d="
					M191.47,44.27h4.2v6.15h17.7v43.9h-54.5 M177.17,44.27h-4.45v6.15h-24.2l-4.95-4.1v32.6 M138.57,50.33l5-4V28.17h-99.5v17.8
					c2.43,0.03,4.52,0.77,6.25,2.2c1.73,1.47,2.6,3.23,2.6,5.3c0,2.1-0.87,3.87-2.6,5.3c-1.73,1.43-3.82,2.17-6.25,2.2v25h15.05
					 M130.62,91.63v-41.2h7.55 M44.07,60.98c-0.03,0-0.08,0-0.15,0c-2.5,0-4.63-0.73-6.4-2.2c-1.77-1.43-2.65-3.2-2.65-5.3
					c0-2.07,0.88-3.83,2.65-5.3c1.77-1.47,3.9-2.2,6.4-2.2c0.07,0,0.12,0,0.15,0 M31.42,85.98h12.65 M37.92,89.17h6.15h7.05
					 M134.27,147.53l-4.1,10.25l-8.5-10.25l-5.95,10.25l-7.65-10.25l-5.7,10.25l-7.8-10.25l-5.95,10.25l-6.5-10.25h-0.05l-8.3,10.25
					l-6.45-10.75l-5.85,7.35h-17.4v-28.05l-5-2.7 M39.07,120.92l5-2.95v-28.8 M49.12,124.13l-5.05,2.2 M44.07,117.97l5.05,2.95
					 M115.47,140.08l3.1,3.95l0.3-8.9h24.7v-27.35 M118.57,144.03h0.05l3.3-4.1"/>
			</g>
		</g>
		<g>
			<g>
				<path fill-rule="evenodd" clip-rule="evenodd" fill="#FFFFFF" d="M143.57,75.77c1.07,0,1.97,0.32,2.7,0.95
					c0.77,0.63,1.15,1.37,1.15,2.2c0,0.9-0.38,1.65-1.15,2.25c-0.73,0.63-1.63,0.95-2.7,0.95c-1.03,0-1.93-0.32-2.7-0.95
					c-0.73-0.6-1.1-1.35-1.1-2.25c0-0.83,0.37-1.57,1.1-2.2C141.63,76.09,142.53,75.77,143.57,75.77z"/>
			</g>
			<g>
				<path fill-rule="evenodd" clip-rule="evenodd" fill="#FFFFFF" d="M140.87,106.92c0.77-0.6,1.67-0.9,2.7-0.9
					c1.07,0,1.97,0.3,2.7,0.9c0.77,0.63,1.15,1.38,1.15,2.25c0,0.9-0.38,1.65-1.15,2.25c-0.73,0.63-1.63,0.95-2.7,0.95
					c-1.03,0-1.93-0.32-2.7-0.95c-0.73-0.6-1.1-1.35-1.1-2.25C139.77,108.31,140.13,107.56,140.87,106.92z"/>
			</g>
			<g>
				<path fill-rule="evenodd" clip-rule="evenodd" fill="#FFFFFF" d="M158.27,91.42c1.07,0,1.97,0.3,2.7,0.9
					c0.77,0.63,1.15,1.38,1.15,2.25c0,0.9-0.38,1.65-1.15,2.25c-0.73,0.63-1.63,0.95-2.7,0.95c-1.03,0-1.93-0.32-2.7-0.95
					c-0.73-0.6-1.1-1.35-1.1-2.25c0-0.87,0.37-1.62,1.1-2.25C156.33,91.72,157.23,91.42,158.27,91.42z"/>
			</g>
			<g>
				<path fill-rule="evenodd" clip-rule="evenodd" fill="#FFFFFF" d="M131.17,91.42c1.1,0,2,0.3,2.7,0.9
					c0.77,0.63,1.15,1.38,1.15,2.25c0,0.9-0.38,1.65-1.15,2.25c-0.7,0.63-1.6,0.95-2.7,0.95c-1.03,0-1.93-0.32-2.7-0.95
					c-0.73-0.6-1.1-1.35-1.1-2.25c0-0.87,0.37-1.62,1.1-2.25C129.23,91.72,130.13,91.42,131.17,91.42z"/>
			</g>
		</g>
		<g>
			<g>
				<path fill="#FFFFFF" d="M39.87,57.02l3.56-8.64h1.32l3.79,8.64h-1.4l-1.08-2.62h-3.88l-1.02,2.62H39.87z M42.54,53.47h3.14
					l-0.97-2.39c-0.3-0.73-0.51-1.32-0.66-1.79c-0.12,0.55-0.28,1.1-0.5,1.65L42.54,53.47z"/>
			</g>
			<g>
				<path fill="#FFFFFF" d="M20.92,90.82v-9.29h6.7v1.1h-5.48v2.85h5.13v1.09h-5.13v3.16h5.69v1.1H20.92z"/>
			</g>
			<g>
				<path fill="#FFFFFF" d="M20.84,126.5v-8.87h1.23v4.4l4.6-4.4h1.66l-3.89,3.59l4.06,5.28h-1.62l-3.3-4.49l-1.52,1.42v3.07H20.84z
					"/>
			</g>
			<g>
				<path fill="#FFFFFF" d="M93.9,170.66v-9.08h4.11c0.83,0,1.45,0.08,1.88,0.25c0.43,0.16,0.77,0.45,1.03,0.86s0.39,0.87,0.39,1.37
					c0,0.64-0.21,1.19-0.64,1.63c-0.43,0.44-1.08,0.72-1.97,0.84c0.32,0.15,0.57,0.3,0.74,0.45c0.36,0.32,0.7,0.72,1.02,1.21
					l1.61,2.47h-1.54l-1.23-1.89c-0.36-0.54-0.65-0.96-0.89-1.25s-0.44-0.49-0.62-0.61c-0.18-0.12-0.37-0.2-0.56-0.24
					c-0.14-0.03-0.37-0.04-0.68-0.04h-1.42v4.03H93.9z M95.13,165.59h2.64c0.56,0,1-0.06,1.32-0.17c0.32-0.11,0.56-0.29,0.72-0.54
					s0.25-0.52,0.25-0.81c0-0.43-0.16-0.78-0.48-1.06c-0.32-0.28-0.82-0.42-1.51-0.42h-2.93V165.59z"/>
			</g>
		</g>
		<g>
			<path fill-rule="evenodd" clip-rule="evenodd" d="M179.67,41.63h4.05v0.9h-1.55v4.5h-0.95v-4.5h-1.55V41.63z M185.67,42.92
				c-0.27,0.3-0.4,0.75-0.4,1.35c0,0.67,0.13,1.13,0.4,1.4c0.23,0.33,0.57,0.5,1,0.5c0.27,0,0.48-0.05,0.65-0.15
				c0.2-0.1,0.4-0.22,0.6-0.35v-0.65h-1.2v-0.9h2.2v2.15c-0.2,0.23-0.52,0.43-0.95,0.6c-0.4,0.17-0.78,0.25-1.15,0.25
				c-0.57,0-1.03-0.12-1.4-0.35c-0.43-0.23-0.73-0.6-0.9-1.1c-0.2-0.37-0.3-0.83-0.3-1.4c0-0.57,0.1-1.07,0.3-1.5
				c0.23-0.43,0.55-0.77,0.95-1c0.33-0.17,0.73-0.25,1.2-0.25c0.63,0,1.15,0.13,1.55,0.4c0.3,0.3,0.52,0.7,0.65,1.2l-1.05,0.15
				c-0.07-0.23-0.18-0.43-0.35-0.6c-0.23-0.17-0.5-0.25-0.8-0.25C186.23,42.42,185.9,42.59,185.67,42.92z"/>
		</g>
	</g>
</g>
</svg>
