<?xml version="1.0" encoding="utf-8"?>
<!-- Generator: Adobe Illustrator 16.0.0, SVG Export Plug-In . SVG Version: 6.00 Build 0)  -->
<!DOCTYPE svg PUBLIC "-//W3C//DTD SVG 1.1//EN" "http://www.w3.org/Graphics/SVG/1.1/DTD/svg11.dtd">
<svg version="1.1" id="Layer_1" xmlns="http://www.w3.org/2000/svg" xmlns:xlink="http://www.w3.org/1999/xlink" x="0px" y="0px"
	 width="422px" height="147px" viewBox="0 0 422 147" enable-background="new 0 0 422 147" xml:space="preserve">
<g>
	<g>
		<path fill-rule="evenodd" clip-rule="evenodd" fill-opacity="0.149" d="M398,76.15c-6.03-11.57-8.9-20.27-8.6-26.1
			c0-0.37,0.15-0.7,0.45-1c0.27-0.3,0.6-0.45,1-0.45c0.47,0,0.83,0.18,1.1,0.55c0.37,0.3,0.55,0.65,0.55,1.05
			c-0.17,5.43,2.58,13.62,8.25,24.55c5.83,11.33,9.12,17.93,9.85,19.8c0.97,2.37,1.93,4.85,2.9,7.45c0.77,1.9,1.53,3.9,2.3,6
			c3.83,9.93,0.68,17.98-9.45,24.15c-9.57,5.8-25.6,9.82-48.1,12.05c-0.1,0-0.15,0.03-0.15,0.1c-47.7-0.83-101.88-3.22-162.55-7.15
			c-30.67-2.03-53.32-6.17-67.95-12.4c-15.33-6.67-22.23-15.63-20.7-26.9c2.5-20.47-1.33-36.68-11.5-48.65
			C62.33,26.03,35.95,15.78,16.25,18.45c-0.4,0.03-0.75-0.08-1.05-0.35c-0.37-0.3-0.55-0.65-0.55-1.05c-0.17-0.47-0.1-0.85,0.2-1.15
			c0.27-0.3,0.6-0.48,1-0.55c20.33-2.87,47.53,7.63,81.6,31.5c0.1,0.03,0.15,0.1,0.15,0.2c10.87,12.6,14.97,29.67,12.3,51.2
			c-1.07,9.77,5.25,17.65,18.95,23.65c14.43,6.13,36.72,10.22,66.85,12.25c60.57,3.9,114.65,6.23,162.25,7
			c21.93-2.2,37.53-6.08,46.8-11.65c8.6-5.23,11.32-12.02,8.15-20.35v-0.1c-0.73-2.03-1.48-4-2.25-5.9c-1-2.6-1.97-5.08-2.9-7.45
			C407.05,93.87,403.8,87.35,398,76.15z"/>
	</g>
	<g>
		<path fill-rule="evenodd" clip-rule="evenodd" fill="#FFFFFF" d="M389.05,43c0.9,0.7,1.97,1.1,3.2,1.2l-0.05,0.1
			c1.2,0.03,2.5-0.45,3.9-1.45c0.3-0.2,0.63-0.3,1-0.3c0.4,0.03,0.75,0.25,1.05,0.65c0.27,0.27,0.37,0.63,0.3,1.1
			c-0.03,0.4-0.2,0.75-0.5,1.05c-2.07,1.43-4.07,2.1-6,2c-1.5-0.13-2.83-0.58-4-1.35c-3.07,2.77,1.77,18.13,14.5,46.1
			c7.27,16.03,6.7,27.98-1.7,35.85c-8.03,7.77-23.6,11.5-46.7,11.2c-43.1,1.03-95.58-0.9-157.45-5.8
			c-62.87-5.07-95.3-19.68-97.3-43.85c-2.1-23.17-4.87-37.95-8.3-44.35h0.1c-8.4-14.6-20.25-24.97-35.55-31.1
			c-15.1-5.97-25.9-7.63-32.4-5c-7.73,3.3-12.77,3.35-15.1,0.15c-0.3-0.3-0.43-0.65-0.4-1.05c0.07-0.4,0.25-0.77,0.55-1.1
			C8.57,6.82,8.95,6.7,9.35,6.7c0.4,0.03,0.73,0.23,1,0.6c1.8,1.8,5.67,1.45,11.6-1.05c7-3.2,18.58-1.55,34.75,4.95
			c16,6.4,28.33,17.23,37,32.5c3.57,6.53,6.45,21.7,8.65,45.5c2.3,22.47,33.82,36.15,94.55,41.05
			c61.73,4.87,114.08,6.82,157.05,5.85h0.1c22.03,0.3,36.88-3.13,44.55-10.3c7.27-7.2,7.58-18.05,0.95-32.55v0.1
			c-14.43-31.63-18.4-48.52-11.9-50.65c0.27-0.1,0.52-0.13,0.75-0.1C388.6,42.67,388.82,42.8,389.05,43z"/>
	</g>
</g>
</svg>
