<?xml version="1.0" encoding="utf-8"?>
<!-- Generator: Adobe Illustrator 16.0.0, SVG Export Plug-In . SVG Version: 6.00 Build 0)  -->
<!DOCTYPE svg PUBLIC "-//W3C//DTD SVG 1.1//EN" "http://www.w3.org/Graphics/SVG/1.1/DTD/svg11.dtd">
<svg version="1.1" id="BG_color" xmlns="http://www.w3.org/2000/svg" xmlns:xlink="http://www.w3.org/1999/xlink" x="0px" y="0px"
	 width="1482.15px" height="1296.13px" viewBox="-101.76 -80.75 1482.15 1296.13"
	 enable-background="new -101.76 -80.75 1482.15 1296.13" xml:space="preserve">
<g>
	<g>
		
			<linearGradient id="SVGID_1_" gradientUnits="userSpaceOnUse" x1="-107.5657" y1="612.3096" x2="1374.5823" y2="612.3096" gradientTransform="matrix(1 0 0 -1 5.8101 1179.6289)">
			<stop  offset="0" style="stop-color:#B69354"/>
			<stop  offset="0.0745" style="stop-color:#BE9D5E"/>
			<stop  offset="0.2353" style="stop-color:#B1853D"/>
			<stop  offset="0.3804" style="stop-color:#AD7E2F"/>
			<stop  offset="0.5843" style="stop-color:#9E6D19"/>
			<stop  offset="0.7608" style="stop-color:#906215"/>
			<stop  offset="1" style="stop-color:#875A16"/>
			<stop  offset="1" style="stop-color:#D4D4D4"/>
			<stop  offset="1" style="stop-color:#D4D4D4"/>
		</linearGradient>
		<path fill="url(#SVGID_1_)" d="M1063.06-80.75c1.02,0,2.01,0,3,0c53.3,0,106.64,0,160.02,0c1.05,0,2.04,0,2.94,0
			c9.95,0,19.87,0,29.74,0c0.94,0,1.92,0,2.94,0c3.02,0,5.97,0,8.88,0c1.02,0,2,0,2.94,0c1.05,0,2.07,0,3.05,0c2.86,0,5.8,0,8.82,0
			c0.94,0,1.92,0,2.94,0c2.04,0,4.01,0,5.94,0c1.02,0,2.01,0,3,0c27.63,0,55.33,0.65,83.12,1.94v2.17c0,34.78,0,69.54,0,104.28
			c0,12.07,0,24.01,0,35.84c0,4.14,0,8.2,0,12.16c0,1.26,0,2.6,0,4.05c0,10.62,0,21.21,0,31.79c0,1.4,0,2.82,0,4.22
			c0,1.45,0,2.76,0,3.94c0,1.34,0,2.71,0,4.11c0,2.71,0,5.34,0,7.93c0,1.33,0,2.65,0,3.94c0,1.33,0,2.7,0,4.11c0,1.4,0,2.77,0,4.11
			c0,9.25,0,18.58,0,28.02c0,1.18,0,2.49,0,3.94c0,1.26,0,2.63,0,4.11c0,1.18,0,2.42,0,3.71c0,1.52,0,2.93,0,4.22
			c0,11.99,0,24.01,0,36.07c0,1.34,0,2.63,0,3.88c0,2.74,0,5.42,0,8.05c0,1.4,0,2.77,0,4.11c0,20.09,0,40.1,0,60.04
			c0,1.29,0,2.72,0,4.28c0,25.23,0,50.57,0,76.02c0,1.34,0,2.63,0,3.88c0,60.19,0,120.34,0,180.42c0,1.4,0,2.76,0,4.05
			c0,25.34,0,50.68,0,76.02c0,1.41,0,2.77,0,4.11c0,3.88,0,7.9,0,12.04c0,1.34,0,2.65,0,3.94c0,8.02,0,16.01,0,23.97
			c0,1.4,0,2.77,0,4.11c0,2.63,0,5.29,0,7.99c0,1.29,0,2.72,0,4.28c-0.11,5.17-0.11,10.42,0,15.75c0,1.29,0,2.6,0,3.94
			c0,4.14,0,8.16,0,12.04c0,1.48,0,2.8,0,3.94c0,24.17,0,48.23,0,72.2c0,1.4,0,2.76,0,4.05c0,4.14,0,8.22,0,12.22
			c0,1.22,0,2.53,0,3.94c0,3.88,0,7.85,0,11.93c0,1.4,0,2.76,0,4.05c0,110.96,0,221.88,0,332.75c0,1.33,0,2.65,0,3.94
			c0,6.62,0,13.32,0,20.09c0,1.34,0,2.71,0,4.11c0,1.18,0,2.42,0,3.71c0,0.57,0,1.11,0,1.6H-101.76c0-0.49,0-1.03,0-1.6
			c0-1.29,0-2.53,0-3.71c0-5.37,0-10.82,0-16.38c0-1.18,0-2.49,0-3.94c0-2.59,0-5.19,0-7.82c0-1.41,0-2.76,0-4.05
			c0-9.36,0-18.75,0-28.19c0-1.22,0-2.55,0-4c0-5.29,0-10.54,0-15.75c0-1.56,0-2.99,0-4.28c0-94.86,0-189.74,0-284.64
			c0-1.33,0-2.65,0-3.94c0-1.25,0-2.55,0-3.88c0-1.4,0-2.72,0-3.94c0-18.69,0-37.47,0-56.33c0-1.29,0-2.65,0-4.05
			c0-1.17,0-2.48,0-3.88c0-1.33,0-2.7,0-4.11c0-10.65,0-21.27,0-31.85c0-1.48,0-2.89,0-4.22s0-2.65,0-3.94c0-49.39,0-98.83,0-148.34
			c0-1.18,0-2.48,0-3.88c0-1.29,0-2.65,0-4.05c0-1.22,0-2.59,0-4.11c0-16.02,0-32.1,0-48.23c0-1.26,0-2.49,0-3.71
			c0-1.4,0-2.77,0-4.11c0-1.4,0-2.68,0-3.83c0-32.16,0-64.27,0-96.34c0-1.34,0-2.63,0-3.88c0-1.45,0-2.89,0-4.34
			c0-6.62,0-13.18,0-19.69c0-1.4,0-2.82,0-4.22c0-1.34,0-2.71,0-4.11c0-1.18,0-2.49,0-3.94c0-29.37,0-58.73,0-88.07
			c0-1.4,0-2.77,0-4.11c0-1.22,0-2.53,0-3.94c0-1.26,0-2.63,0-4.11c0-7.91,0-15.89,0-23.91c0-1.33,0-2.71,0-4.11
			c0-1.18,0-2.49,0-3.94c0-32.19,0-64.29,0-96.29c0-1.29,0-2.6,0-3.94c0-1.4,0-2.71,0-3.88c0-1.4,0-2.76,0-4.05
			c0-12.1,0-24.18,0-36.24c0-1.29,0-2.6,0-3.94c0-7.96,0-16.02,0-24.2c0-1.29,0-2.53,0-3.71c0-2.71,0-5.34,0-7.93
			c0-1.48,0-2.93,0-4.34c0-18.69,0-37.38,0-56.11c0-1.22,0-2.53,0-3.94c0-3.88,0-7.9,0-12.04c0-1.29,0-2.6,0-3.94
			c0-16.1,0-32.13,0-48.12c111.65,0,223.27,0,334.86,0c0.98,0,2,0,3.05,0c91.83,0,183.71,0,275.66,0c0.98,0,1.92,0,2.83,0
			c62.35,0,124.62,0,186.82,0c0.98,0,2,0,3.05,0c12.78,0,25.62,0,38.51,0c0.98,0,1.96,0,2.94,0c0.98,0,1.96,0,2.94,0s1.96,0,2.94,0
			c17.84,0,35.65,0,53.43,0c0.98,0,1.95,0,2.89,0c27.74,0,55.39,0,82.95,0c1.05,0,2.07,0,3.05,0c10.86,0,21.74,0,32.63,0
			c0.91,0,1.89,0,2.94,0C974.18-80.75,1018.62-80.75,1063.06-80.75z"/>
	</g>
	<g>
		<g>
			<g>
				
					<radialGradient id="SVGID_2_" cx="661.0901" cy="636.5293" r="962.5171" gradientTransform="matrix(1 0 0 -1 5.8101 1179.6289)" gradientUnits="userSpaceOnUse">
					<stop  offset="0" style="stop-color:#000000;stop-opacity:0.251"/>
					<stop  offset="0.6296" style="stop-color:#000000;stop-opacity:0.25"/>
					<stop  offset="0.7742" style="stop-color:#000000;stop-opacity:0"/>
				</radialGradient>
				<path fill="url(#SVGID_2_)" d="M310.15,485.25l723.65,0.3c0.3,4.8,0.53,9.62,0.7,14.45c0.17,4.67,0.25,9.4,0.25,14.2
					c-0.03,18.13-1.23,35.78-3.6,52.95c104.77-13.57,201.07-33.08,288.9-58.55c2.7-0.8,5.35-1.58,7.95-2.35l-0.05,76.15
					c-2.6,0.73-5.25,1.52-7.95,2.35c-93.37,27.17-196.3,47.52-308.8,61.05c-3.6,9.23-7.57,18.28-11.9,27.15
					c-2.3,4.7-4.73,9.37-7.3,14c-16.5,29.87-37.75,57.8-63.75,83.8c-1.3,1.33-2.62,2.65-3.95,3.95
					c71.03,21.3,136.48,51.47,196.35,90.5c1.87,1.2,3.73,2.42,5.6,3.65v61.45c-1.87-1.2-3.73-2.42-5.6-3.65
					C1044.88,877.32,960.2,842.1,866.6,821c-6.13,3.97-12.33,7.72-18.6,11.25c-52.67,29.73-111.43,44.6-176.3,44.6
					c-47.3-0.07-91.33-8-132.1-23.8c-26.73-10.33-52.07-24.1-76-41.3c-108.63,18.53-205.9,55-291.8,109.4v-61.5
					c70.63-44.73,148.98-77.33,235.05-97.8c-17.03-17.97-31.77-36.92-44.2-56.85c-3.87-6-7.48-12.12-10.85-18.35
					c-6.1-11.1-11.57-22.45-16.4-34.05c-133.8-12.73-254.88-34.43-363.25-65.1l0.05-76.1c102.4,28.9,216.2,49.9,341.4,63
					c-3.1-19.6-4.63-39.77-4.6-60.5c0-4.8,0.12-9.53,0.35-14.2C309.52,494.87,309.78,490.05,310.15,485.25z"/>
				
					<radialGradient id="SVGID_3_" cx="662.9709" cy="737.9473" r="367.2875" gradientTransform="matrix(1 3.992608e-004 3.483052e-004 -0.8724 5.6216 1110.2328)" gradientUnits="userSpaceOnUse">
					<stop  offset="0" style="stop-color:#000000;stop-opacity:0.502"/>
					<stop  offset="0.7804" style="stop-color:#000000;stop-opacity:0.502"/>
					<stop  offset="0.9686" style="stop-color:#000000;stop-opacity:0"/>
				</radialGradient>
				<path fill="url(#SVGID_3_)" d="M1033.8,485.55l-723.65-0.3c6.2-88,41.3-163.95,105.3-227.85
					C486.32,186.63,571.83,151.28,672,151.35c100.27,0,185.77,35.42,256.5,106.25C992.5,321.57,1027.6,397.55,1033.8,485.55z"/>
			</g>
		</g>
		<g>
			<g>
				<g>
					
						<linearGradient id="SVGID_4_" gradientUnits="userSpaceOnUse" x1="66.0833" y1="1129.9951" x2="354.06" y2="1007.4485" gradientTransform="matrix(1.3759 -9.612908e-004 -9.612908e-004 -1.3759 738.7678 2250.3442)">
						<stop  offset="0" style="stop-color:#161414"/>
						<stop  offset="0.2549" style="stop-color:#161414"/>
						<stop  offset="0.4627" style="stop-color:#3A3434"/>
						<stop  offset="0.698" style="stop-color:#161414"/>
						<stop  offset="1" style="stop-color:#161414"/>
					</linearGradient>
					<path fill="url(#SVGID_4_)" d="M1196.84,927.78c-89.58-94.54-210.73-158.31-363.44-191.31l45.83-88.85
						c132.65,36.19,248.18,112.24,346.61,228.16c0.59,0.68,1.17,1.37,1.76,2.06l-19.47,48.58L1196.84,927.78z"/>
					
						<linearGradient id="SVGID_5_" gradientUnits="userSpaceOnUse" x1="62.886" y1="1027.5049" x2="333.5896" y2="1027.5049" gradientTransform="matrix(1.3759 -9.612908e-004 -9.612908e-004 -1.3759 738.7678 2250.3442)">
						<stop  offset="0" style="stop-color:#4A4141"/>
						<stop  offset="0.4627" style="stop-color:#000000"/>
						<stop  offset="1" style="stop-color:#000000"/>
					</linearGradient>
					<path fill="url(#SVGID_5_)" d="M833.39,736.47c152.72,33,273.87,96.77,363.44,191.31l-7.49,8.57
						c-79.09-92.73-200.79-152.27-365.09-178.61L833.39,736.47z"/>
				</g>
			</g>
			<g>
				
					<radialGradient id="SVGID_6_" cx="198.0901" cy="1058.8291" r="115.0505" gradientTransform="matrix(1.3759 -9.612908e-004 -9.612908e-004 -1.3759 738.7678 2250.3442)" gradientUnits="userSpaceOnUse">
					<stop  offset="0" style="stop-color:#FFFFFF;stop-opacity:0.4588"/>
					<stop  offset="1" style="stop-color:#FFFFFF;stop-opacity:0"/>
				</radialGradient>
				<path fill="url(#SVGID_6_)" d="M845.33,744.2c-1.15-0.26-2.05-0.89-2.69-1.89c-0.63-0.99-0.81-2.06-0.55-3.2
					c0.26-1.15,0.89-2.05,1.89-2.68c0.99-0.63,2.06-0.81,3.2-0.55c126.11,28.02,228.41,76.47,306.9,145.36
					c0.89,0.78,1.37,1.76,1.45,2.92c0.07,1.17-0.28,2.21-1.06,3.1c-0.78,0.89-1.75,1.37-2.92,1.45c-1.17,0.07-2.21-0.28-3.1-1.06
					C1070.9,819.68,969.87,771.87,845.33,744.2z"/>
			</g>
			<g>
				
					<radialGradient id="SVGID_7_" cx="138.0676" cy="882.416" r="80.9946" gradientTransform="matrix(1.2199 0.6364 0.1245 -0.2158 746.845 820.3929)" gradientUnits="userSpaceOnUse">
					<stop  offset="0" style="stop-color:#FFFFFF"/>
					<stop  offset="0.1765" style="stop-color:#FFFFFF"/>
					<stop  offset="0.3059" style="stop-color:#FFFFFF;stop-opacity:0.4235"/>
					<stop  offset="0.4902" style="stop-color:#FFFFFF;stop-opacity:0.2314"/>
					<stop  offset="0.651" style="stop-color:#FFFFFF;stop-opacity:0.0824"/>
					<stop  offset="1" style="stop-color:#FFFFFF;stop-opacity:0"/>
				</radialGradient>
				<path fill="url(#SVGID_7_)" d="M927.73,667.06c2.7-4.77,14.6-3.86,35.71,2.73c21.01,6.59,44.87,16.85,71.57,30.77
					c26.75,13.97,48.7,27.62,65.87,40.96c17.12,13.33,24.32,22.39,21.62,27.16c-2.75,4.73-14.63,3.77-35.64-2.86
					c-21.06-6.54-44.96-16.8-71.71-30.77c-26.7-13.92-48.61-27.58-65.73-40.96C932.21,680.79,924.98,671.79,927.73,667.06z"/>
			</g>
			<g>
				
					<radialGradient id="SVGID_8_" cx="133.345" cy="1171.5293" r="69.2394" gradientTransform="matrix(1.2741 0.5194 0.0524 -0.0828 756.3067 811.2352)" gradientUnits="userSpaceOnUse">
					<stop  offset="0" style="stop-color:#FFFFFF"/>
					<stop  offset="0.1765" style="stop-color:#FFFFFF"/>
					<stop  offset="0.3059" style="stop-color:#FFFFFF;stop-opacity:0.4235"/>
					<stop  offset="0.4902" style="stop-color:#FFFFFF;stop-opacity:0.2314"/>
					<stop  offset="0.651" style="stop-color:#FFFFFF;stop-opacity:0.0824"/>
					<stop  offset="1" style="stop-color:#FFFFFF;stop-opacity:0"/>
				</radialGradient>
				<path fill="url(#SVGID_8_)" d="M900.68,748.05c0.96-1.56,10.3,0.59,28,6.45c17.8,5.86,38.63,13.64,62.48,23.35
					c23.86,9.75,43.93,18.64,60.21,26.65c16.38,8.06,24.09,12.87,23.13,14.43c-1.01,1.56-10.39-0.59-28.14-6.45
					c-17.71-5.81-38.49-13.59-62.35-23.35c-23.86-9.71-43.97-18.59-60.35-26.65C907.34,754.42,899.67,749.61,900.68,748.05z"/>
			</g>
		</g>
		<g>
			<g>
				<g>
					
						<linearGradient id="SVGID_9_" gradientUnits="userSpaceOnUse" x1="91.3396" y1="346.854" x2="464.6394" y2="346.854" gradientTransform="matrix(1 0 0 -1 5.8101 1179.6289)">
						<stop  offset="0" style="stop-color:#4A4141"/>
						<stop  offset="0.4627" style="stop-color:#000000"/>
						<stop  offset="1" style="stop-color:#000000"/>
					</linearGradient>
					<path fill="url(#SVGID_9_)" d="M97.15,924.55c89.7-94.87,211.08-158.85,364.15-191.95l9.15,21.25
						c-164.7,26.53-286.63,86.23-365.8,179.1L97.15,924.55z"/>
					
						<linearGradient id="SVGID_10_" gradientUnits="userSpaceOnUse" x1="867.2903" y1="1168.1172" x2="1298.8341" y2="1168.1172" gradientTransform="matrix(-0.9203 0.3912 0.3912 0.9203 807.2811 -722.6348)">
						<stop  offset="0" style="stop-color:#161414"/>
						<stop  offset="0.2549" style="stop-color:#161414"/>
						<stop  offset="0.4627" style="stop-color:#3A3434"/>
						<stop  offset="0.698" style="stop-color:#161414"/>
						<stop  offset="1" style="stop-color:#161414"/>
					</linearGradient>
					<path fill="url(#SVGID_10_)" d="M97.15,924.55l-11.35-1.5l-19.6-48.6c0.67-0.7,1.3-1.38,1.9-2.05
						c98.6-116.23,214.33-192.47,347.2-228.7l46,88.9C308.23,765.7,186.85,829.68,97.15,924.55z"/>
				</g>
			</g>
			<g>
				
					<radialGradient id="SVGID_11_" cx="910.5842" cy="1693.1025" r="158.6492" gradientTransform="matrix(-1 -4.727387e-004 4.727387e-004 -1 1193.7842 2483.1819)" gradientUnits="userSpaceOnUse">
					<stop  offset="0" style="stop-color:#FFFFFF;stop-opacity:0.4588"/>
					<stop  offset="1" style="stop-color:#FFFFFF;stop-opacity:0"/>
				</radialGradient>
				<path fill="url(#SVGID_11_)" d="M451.85,738.45c-0.6,1.13-1.47,1.83-2.6,2.1c-124.73,27.67-225.92,75.57-303.55,143.7
					c-0.97,0.83-2.03,1.15-3.2,0.95c-1.23-0.03-2.22-0.5-2.95-1.4c-0.8-0.8-1.15-1.83-1.05-3.1c0.03-1.07,0.52-2.02,1.45-2.85
					c78.6-69.03,181.07-117.62,307.4-145.75c1.2-0.27,2.27-0.1,3.2,0.5c1.07,0.63,1.68,1.53,1.85,2.7
					C452.7,736.4,452.52,737.45,451.85,738.45z"/>
			</g>
			<g>
				
					<radialGradient id="SVGID_12_" cx="1083.7659" cy="3117.9453" r="111.6328" gradientTransform="matrix(-0.8865 0.4627 -0.0904 -0.1567 1511.7412 701.1639)" gradientUnits="userSpaceOnUse">
					<stop  offset="0" style="stop-color:#FFFFFF"/>
					<stop  offset="0.1765" style="stop-color:#FFFFFF"/>
					<stop  offset="0.3059" style="stop-color:#FFFFFF;stop-opacity:0.4235"/>
					<stop  offset="0.4902" style="stop-color:#FFFFFF;stop-opacity:0.2314"/>
					<stop  offset="0.651" style="stop-color:#FFFFFF;stop-opacity:0.0824"/>
					<stop  offset="1" style="stop-color:#FFFFFF;stop-opacity:0"/>
				</radialGradient>
				<path fill="url(#SVGID_12_)" d="M259.15,696.75c26.77-13.97,50.72-24.28,71.85-30.95c21.1-6.6,33.02-7.5,35.75-2.7
					c2.73,4.73-4.48,13.75-21.65,27.05c-17.2,13.47-39.18,27.18-65.95,41.15c-26.87,13.97-50.85,24.25-71.95,30.85
					c-21.07,6.67-32.97,7.62-35.7,2.85c-2.67-4.73,4.55-13.82,21.65-27.25C210.42,724.42,232.42,710.75,259.15,696.75z"/>
			</g>
			<g>
				
					<radialGradient id="SVGID_13_" cx="1101.9329" cy="5627.1582" r="95.5012" gradientTransform="matrix(-0.9259 0.3778 -0.0381 -0.0601 1541.4155 701.733)" gradientUnits="userSpaceOnUse">
					<stop  offset="0" style="stop-color:#FFFFFF"/>
					<stop  offset="0.1765" style="stop-color:#FFFFFF"/>
					<stop  offset="0.3059" style="stop-color:#FFFFFF;stop-opacity:0.4235"/>
					<stop  offset="0.4902" style="stop-color:#FFFFFF;stop-opacity:0.2314"/>
					<stop  offset="0.651" style="stop-color:#FFFFFF;stop-opacity:0.0824"/>
					<stop  offset="1" style="stop-color:#FFFFFF;stop-opacity:0"/>
				</radialGradient>
				<path fill="url(#SVGID_13_)" d="M365.8,750.75c17.73-5.87,27.07-8.02,28-6.45c1.07,1.57-6.6,6.42-23,14.55
					c-16.33,7.97-36.48,16.82-60.45,26.55c-23.97,9.77-44.8,17.58-62.5,23.45c-17.83,5.87-27.23,8.03-28.2,6.5
					c-0.93-1.57,6.77-6.4,23.1-14.5c16.4-8.03,36.53-16.93,60.4-26.7C327.02,764.45,347.9,756.65,365.8,750.75z"/>
			</g>
		</g>
		<g>
			<g>
				
					<linearGradient id="SVGID_14_" gradientUnits="userSpaceOnUse" x1="325.5779" y1="467.3647" x2="896.3776" y2="467.1181" gradientTransform="matrix(1 0 0 -1 5.8101 1179.6289)">
					<stop  offset="0" style="stop-color:#000000"/>
					<stop  offset="0.2902" style="stop-color:#413F3F"/>
					<stop  offset="0.5255" style="stop-color:#777777"/>
					<stop  offset="0.7098" style="stop-color:#5A4F47"/>
					<stop  offset="1" style="stop-color:#000000"/>
				</linearGradient>
				<path fill="url(#SVGID_14_)" d="M331.5,565.65c1.77,75.47,29.58,140.17,83.45,194.1c55.63,55.77,122.9,83.67,201.8,83.7
					c78.83,0.03,146.12-27.83,201.85-83.6c53.97-53.8,81.82-118.43,83.55-193.9c0.07,2.6,0.1,5.2,0.1,7.8
					c0,78.83-27.9,146.07-83.7,201.7c-55.7,55.73-122.97,83.58-201.8,83.55c-78.9-0.03-146.18-27.92-201.85-83.65
					c-55.63-55.77-83.45-123.07-83.45-201.9C331.45,570.85,331.47,568.25,331.5,565.65z"/>
				
					<linearGradient id="SVGID_15_" gradientUnits="userSpaceOnUse" x1="325.5779" y1="467.3647" x2="896.3776" y2="467.1181" gradientTransform="matrix(1 0 0 -1 5.8101 1179.6289)">
					<stop  offset="0" style="stop-color:#000000"/>
					<stop  offset="0.2902" style="stop-color:#413F3F"/>
					<stop  offset="0.5255" style="stop-color:#777777"/>
					<stop  offset="0.7098" style="stop-color:#5A4F47"/>
					<stop  offset="1" style="stop-color:#000000"/>
				</linearGradient>
				<path fill="url(#SVGID_15_)" d="M331.5,565.65c1.77,75.47,29.58,140.17,83.45,194.1c55.63,55.77,122.9,83.67,201.8,83.7
					c78.83,0.03,146.12-27.83,201.85-83.6c53.97-53.8,81.82-118.43,83.55-193.9c0.07,2.6,0.1,5.2,0.1,7.8
					c0,78.83-27.9,146.07-83.7,201.7c-55.7,55.73-122.97,83.58-201.8,83.55c-78.9-0.03-146.18-27.92-201.85-83.65
					c-55.63-55.77-83.45-123.07-83.45-201.9C331.45,570.85,331.47,568.25,331.5,565.65z"/>
				
					<linearGradient id="SVGID_16_" gradientUnits="userSpaceOnUse" x1="-113.4246" y1="621.8867" x2="-496.3246" y2="622.0362" gradientTransform="matrix(1 0 0 -1 5.8101 1179.6289)">
					<stop  offset="0" style="stop-color:#2A2525"/>
					<stop  offset="1" style="stop-color:#090708"/>
				</linearGradient>
				<path fill="url(#SVGID_16_)" d="M902.15,565.95c-1.73,75.47-29.58,140.1-83.55,193.9c-55.73,55.77-123.02,83.63-201.85,83.6
					c-78.9-0.03-146.17-27.93-201.8-83.7c-53.87-53.93-81.68-118.63-83.45-194.1c-0.03-2.57-0.05-5.17-0.05-7.8
					c0.07-78.8,27.95-146.05,83.65-201.75c55.67-55.7,122.95-83.53,201.85-83.5c78.83,0.03,146.1,27.9,201.8,83.6
					c55.73,55.83,83.57,123.15,83.5,201.95C902.25,560.78,902.22,563.38,902.15,565.95z"/>
				
					<linearGradient id="SVGID_17_" gradientUnits="userSpaceOnUse" x1="-113.4246" y1="621.8867" x2="-496.3246" y2="622.0362" gradientTransform="matrix(1 0 0 -1 5.8101 1179.6289)">
					<stop  offset="0" style="stop-color:#2A2525"/>
					<stop  offset="1" style="stop-color:#090708"/>
				</linearGradient>
				<path fill="url(#SVGID_17_)" d="M902.15,565.95c-1.73,75.47-29.58,140.1-83.55,193.9c-55.73,55.77-123.02,83.63-201.85,83.6
					c-78.9-0.03-146.17-27.93-201.8-83.7c-53.87-53.93-81.68-118.63-83.45-194.1c-0.03-2.57-0.05-5.17-0.05-7.8
					c0.07-78.8,27.95-146.05,83.65-201.75c55.67-55.7,122.95-83.53,201.85-83.5c78.83,0.03,146.1,27.9,201.8,83.6
					c55.73,55.83,83.57,123.15,83.5,201.95C902.25,560.78,902.22,563.38,902.15,565.95z"/>
				<path fill="none" d="M331.5,565.65c-0.03-2.57-0.05-5.17-0.05-7.8c0.07-78.8,27.95-146.05,83.65-201.75
					c55.67-55.7,122.95-83.53,201.85-83.5c78.83,0.03,146.1,27.9,201.8,83.6c55.73,55.83,83.57,123.15,83.5,201.95
					c0,2.63-0.03,5.23-0.1,7.8c-1.73,75.47-29.58,140.1-83.55,193.9c-55.73,55.77-123.02,83.63-201.85,83.6
					c-78.9-0.03-146.17-27.93-201.8-83.7C361.08,705.82,333.27,641.12,331.5,565.65z"/>
				<path fill="none" d="M331.5,565.65c-0.03-2.57-0.05-5.17-0.05-7.8c0.07-78.8,27.95-146.05,83.65-201.75
					c55.67-55.7,122.95-83.53,201.85-83.5c78.83,0.03,146.1,27.9,201.8,83.6c55.73,55.83,83.57,123.15,83.5,201.95
					c0,2.63-0.03,5.23-0.1,7.8c-1.73,75.47-29.58,140.1-83.55,193.9c-55.73,55.77-123.02,83.63-201.85,83.6
					c-78.9-0.03-146.17-27.93-201.8-83.7C361.08,705.82,333.27,641.12,331.5,565.65z"/>
			</g>
		</g>
		<g>
			<g>
				<path d="M-27.55,466.15c194.3,56.47,414.93,84.77,661.9,84.9c15.87,0,31.63-0.12,47.3-0.35c241.13-3.6,456.55-34.73,646.25-93.4
					v22.1c-189.7,58.67-405.12,89.8-646.25,93.4c-15.67,0.2-31.43,0.3-47.3,0.3c-246.97-0.13-467.6-28.42-661.9-84.85V466.15
					L-27.55,466.15z"/>
				<path d="M-27.55,466.15c194.3,56.47,414.93,84.77,661.9,84.9c15.87,0,31.63-0.12,47.3-0.35c241.13-3.6,456.55-34.73,646.25-93.4
					v22.1c-189.7,58.67-405.12,89.8-646.25,93.4c-15.67,0.2-31.43,0.3-47.3,0.3c-246.97-0.13-467.6-28.42-661.9-84.85V466.15
					L-27.55,466.15z"/>
				
					<linearGradient id="SVGID_18_" gradientUnits="userSpaceOnUse" x1="809.8635" y1="758.5264" x2="1330.0135" y2="758.326" gradientTransform="matrix(1 0 0 -1 5.8101 1179.6289)">
					<stop  offset="0" style="stop-color:#000000"/>
					<stop  offset="0.2745" style="stop-color:#110506"/>
					<stop  offset="0.4118" style="stop-color:#72262F"/>
					<stop  offset="0.4392" style="stop-color:#792831"/>
					<stop  offset="0.6784" style="stop-color:#46171D"/>
					<stop  offset="0.851" style="stop-color:#6B6558"/>
					<stop  offset="1" style="stop-color:#000000"/>
				</linearGradient>
				<path fill="url(#SVGID_18_)" d="M681.65,550.7l0.1-132.5c247.47-4.33,462.85-46.52,646.15-126.55V457.3
					C1138.2,515.97,922.78,547.1,681.65,550.7z"/>
				
					<linearGradient id="SVGID_19_" gradientUnits="userSpaceOnUse" x1="809.8635" y1="758.5264" x2="1330.0135" y2="758.326" gradientTransform="matrix(1 0 0 -1 5.8101 1179.6289)">
					<stop  offset="0" style="stop-color:#000000"/>
					<stop  offset="0.2745" style="stop-color:#110506"/>
					<stop  offset="0.4118" style="stop-color:#72262F"/>
					<stop  offset="0.4392" style="stop-color:#792831"/>
					<stop  offset="0.6784" style="stop-color:#46171D"/>
					<stop  offset="0.851" style="stop-color:#6B6558"/>
					<stop  offset="1" style="stop-color:#000000"/>
				</linearGradient>
				<path fill="url(#SVGID_19_)" d="M681.65,550.7l0.1-132.5c247.47-4.33,462.85-46.52,646.15-126.55V457.3
					C1138.2,515.97,922.78,547.1,681.65,550.7z"/>
				
					<linearGradient id="SVGID_20_" gradientUnits="userSpaceOnUse" x1="289.9197" y1="754.2314" x2="-40.8049" y2="742.6511" gradientTransform="matrix(1 0 0 -1 5.8101 1179.6289)">
					<stop  offset="0" style="stop-color:#000000"/>
					<stop  offset="0.1804" style="stop-color:#110506"/>
					<stop  offset="0.4706" style="stop-color:#792831"/>
					<stop  offset="0.6588" style="stop-color:#5C564E"/>
					<stop  offset="1" style="stop-color:#000000"/>
				</linearGradient>
				<path fill="url(#SVGID_20_)" d="M-27.55,466.15V297.9c192.57,79.87,413.23,120.08,662,120.65c15.87,0.03,31.63-0.08,47.3-0.35
					l-0.1,132.5c-15.67,0.23-31.43,0.35-47.3,0.35C387.38,550.92,166.75,522.62-27.55,466.15z"/>
				
					<linearGradient id="SVGID_21_" gradientUnits="userSpaceOnUse" x1="289.9197" y1="754.2314" x2="-40.8049" y2="742.6511" gradientTransform="matrix(1 0 0 -1 5.8101 1179.6289)">
					<stop  offset="0" style="stop-color:#000000"/>
					<stop  offset="0.1804" style="stop-color:#110506"/>
					<stop  offset="0.4706" style="stop-color:#792831"/>
					<stop  offset="0.6588" style="stop-color:#5C564E"/>
					<stop  offset="1" style="stop-color:#000000"/>
				</linearGradient>
				<path fill="url(#SVGID_21_)" d="M-27.55,466.15V297.9c192.57,79.87,413.23,120.08,662,120.65c15.87,0.03,31.63-0.08,47.3-0.35
					l-0.1,132.5c-15.67,0.23-31.43,0.35-47.3,0.35C387.38,550.92,166.75,522.62-27.55,466.15z"/>
			</g>
		</g>
		<g>
			<g>
				<polyline fill="none" stroke="#000000" stroke-linecap="round" stroke-linejoin="round" stroke-miterlimit="3" points="
					681.65,550.7 681.65,549.95 681.75,418.2 				"/>
				<path fill="none" d="M681.65,549.95c-14.2,0.13-28.42,0.2-42.65,0.2c-15.87-0.03-31.6-0.17-47.2-0.4 M1301.15,465.75
					c-142.5,41.27-299.08,67.38-469.75,78.35c-48.73,3.2-98.65,5.15-149.75,5.85"/>
				<path fill="none" d="M-27.55,466.15c142.37,41.37,298.87,67.6,469.5,78.7c62.27,4.07,126.4,6.13,192.4,6.2
					c15.87,0,31.63-0.12,47.3-0.35"/>
			</g>
		</g>
	</g>
</g>
</svg>
